<svg width="60" height="45" viewBox="0 0 60 45" fill="none" xmlns="http://www.w3.org/2000/svg">
<path d="M55.425 3.75C55.5333 3.75 55.6406 3.77134 55.7407 3.8128C55.8408 3.85426 55.9318 3.91503 56.0084 3.99164C56.085 4.06825 56.1457 4.15919 56.1872 4.25929C56.2287 4.35938 56.25 4.46666 56.25 4.575V40.425C56.25 40.6438 56.1631 40.8536 56.0084 41.0084C55.8536 41.1631 55.6438 41.25 55.425 41.25H4.575C4.3562 41.25 4.14635 41.1631 3.99164 41.0084C3.83692 40.8536 3.75 40.6438 3.75 40.425V4.575C3.75 4.46666 3.77134 4.35938 3.8128 4.25929C3.85426 4.15919 3.91503 4.06825 3.99164 3.99164C4.06825 3.91503 4.15919 3.85426 4.25929 3.8128C4.35938 3.77134 4.46666 3.75 4.575 3.75H55.425ZM55.425 0H4.575C3.36163 0 2.19797 0.482008 1.33999 1.33999C0.482007 2.19797 0 3.36163 0 4.575L0 40.425C0 41.6384 0.482007 42.802 1.33999 43.66C2.19797 44.518 3.36163 45 4.575 45H55.425C56.6384 45 57.802 44.518 58.66 43.66C59.518 42.802 60 41.6384 60 40.425V4.575C60 3.36163 59.518 2.19797 58.66 1.33999C57.802 0.482008 56.6384 0 55.425 0Z" fill="#C5CAD5"/>
<path d="M3.75195 41.2539H39.602L18.752 22.5039L3.75195 33.9414V41.2539ZM56.2519 25.5039L48.7519 18.7539L32.0645 31.4664L42.9394 41.2539H56.2519V25.5039ZM11.252 13.1289C11.252 14.6207 11.8446 16.0515 12.8995 17.1064C13.9544 18.1613 15.3851 18.7539 16.877 18.7539C18.3688 18.7539 19.7995 18.1613 20.8544 17.1064C21.9093 16.0515 22.502 14.6207 22.502 13.1289C22.502 11.6371 21.9093 10.2063 20.8544 9.15143C19.7995 8.09654 18.3688 7.50391 16.877 7.50391C15.3851 7.50391 13.9544 8.09654 12.8995 9.15143C11.8446 10.2063 11.252 11.6371 11.252 13.1289Z" fill="#C5CAD5"/>
</svg>
