<svg xmlns="http://www.w3.org/2000/svg" xmlns:xlink="http://www.w3.org/1999/xlink" fill="none" version="1.1" width="18" height="18" viewBox="0 0 18 18"><defs><clipPath id="master_svg0_49_17572/1_117"><rect x="0" y="0" width="18" height="18" rx="0"/></clipPath></defs><g style="mix-blend-mode:passthrough" clip-path="url(#master_svg0_49_17572/1_117)"><g style="mix-blend-mode:passthrough"><path d="M8.53955,0.907986C8.81038,0.6973381,9.1896,0.6973381,9.460429999999999,0.907986C9.460429999999999,0.907986,16.2104,6.15799,16.2104,6.15799C16.3931,6.30008,16.5,6.51856,16.5,6.75C16.5,6.75,16.5,15,16.5,15C16.5,15.5968,16.262900000000002,16.169,15.841,16.591C15.419,17.0129,14.8468,17.25,14.25,17.25C14.25,17.25,3.75,17.25,3.75,17.25C3.15326,17.25,2.5809699999999998,17.0129,2.15901,16.591C1.737053,16.169,1.5,15.5968,1.5,15C1.5,15,1.5,6.75,1.5,6.75C1.5,6.51856,1.606855,6.30008,1.789544,6.15799C1.789544,6.15799,8.53955,0.907986,8.53955,0.907986C8.53955,0.907986,8.53955,0.907986,8.53955,0.907986ZM7.5,15.75C7.5,15.75,10.5,15.75,10.5,15.75C10.5,15.75,10.5,9.75,10.5,9.75C10.5,9.75,7.5,9.75,7.5,9.75C7.5,9.75,7.5,15.75,7.5,15.75C7.5,15.75,7.5,15.75,7.5,15.75ZM12,15.75C12,15.75,12,9,12,9C12,8.58577,11.6642,8.25,11.25,8.25C11.25,8.25,6.75,8.25,6.75,8.25C6.33579,8.25,6,8.58577,6,9C6,9,6,15.75,6,15.75C6,15.75,3.75,15.75,3.75,15.75C3.55108,15.75,3.3603199999999998,15.6709,3.21967,15.5303C3.07902,15.3897,3,15.1989,3,15C3,15,3,7.11681,3,7.11681C3,7.11681,9,2.45015,9,2.45015C9,2.45015,15,7.11681,15,7.11681C15,7.11681,15,15,15,15C15,15.1989,14.9209,15.3897,14.7803,15.5303C14.6397,15.6709,14.4489,15.75,14.25,15.75C14.25,15.75,12,15.75,12,15.75C12,15.75,12,15.75,12,15.75Z" fill-rule="evenodd" fill="#0256FF" fill-opacity="1"/></g></g></svg>