<svg xmlns="http://www.w3.org/2000/svg" xmlns:xlink="http://www.w3.org/1999/xlink" fill="none" version="1.1" width="16" height="16" viewBox="0.11236572265625 -0.2918701171875 16 16"><defs><clipPath id="master_svg0_2315_18646"><rect x="0" y="0" width="16" height="16" rx="0"/></clipPath></defs><g style="mix-blend-mode:passthrough"><g clip-path="url(#master_svg0_2315_18646)"><g style="mix-blend-mode:passthrough"><g><rect x="0" y="0" width="16" height="16" rx="0" fill="#FFFFFF" fill-opacity="0.009999999776482582"/></g><g><path d="M4.499989494140625,10.66667C4.960226494140625,10.66667,5.333326494140625,10.29357,5.333326494140625,9.833333C5.333326494140625,9.3731,4.960226494140625,9,4.499989494140625,9C4.039756494140625,9,3.666656494140625,9.3731,3.666656494140625,9.833333C3.666656494140625,10.29357,4.039756494140625,10.66667,4.499989494140625,10.66667Z" fill-rule="evenodd" fill="#409EFF" fill-opacity="1"/></g><g><path d="M11.499989494140625,10.66667C11.960226494140626,10.66667,12.333326494140625,10.29357,12.333326494140625,9.833333C12.333326494140625,9.3731,11.960226494140626,9,11.499989494140625,9C11.039756494140626,9,10.666656494140625,9.3731,10.666656494140625,9.833333C10.666656494140625,10.29357,11.039756494140626,10.66667,11.499989494140625,10.66667Z" fill-rule="evenodd" fill="#409EFF" fill-opacity="1"/></g><g><path d="M3.000183505859375,12.8333L2.333343505859375,12.8333Q1.712022505859375,12.8333,1.272685805859375,12.394Q0.833343505859375,11.95466,0.833343505859375,11.33333L0.833343505859375,8.23657Q0.833343505859375,7.52613,1.206945505859375,6.92186Q1.580557505859375,6.31757,2.216107505859375,6.0001L2.4433835058593747,5.88655L2.666853505859375,6.33383L2.179908505859375,6.22032L2.949893505859375,2.917137Q3.094993505859375,2.294688,3.595593505859375,1.897347Q4.096203505859375,1.5,4.735343505859375,1.5L11.298113505859375,1.5Q11.942043505859376,1.5,12.444543505859375,1.9026507Q12.947043505859375,2.3053150000000002,13.087343505859375,2.9337619999999998L13.822343505859376,6.22485L13.334343505859374,6.33383L13.557943505859376,5.88661L13.784743505859375,5.999969999999999Q14.419943505859376,6.31762,14.793343505859376,6.92173Q15.166643505859374,7.52585,15.166643505859374,8.23603L15.166643505859374,11.33333Q15.166643505859374,11.95467,14.727343505859375,12.394Q14.288043505859376,12.8333,13.666643505859374,12.8333L13.001043505859375,12.8333L13.001043505859375,12.3333L13.501043505859375,12.3333L13.501043505859375,12.6667Q13.501043505859375,13.4261,12.963743505859375,13.9631Q12.426543505859375,14.5,11.667243505859375,14.5Q10.907833505859376,14.5,10.370663505859374,13.9631Q9.833343505859375,13.4261,9.833343505859375,12.6667L9.833343505859375,12.3333L10.333343505859375,12.3333L10.333343505859375,12.8333L5.666673505859375,12.8333L5.666673505859375,12.3333L6.166673505859375,12.3333L6.166673505859375,12.6668Q6.166673505859375,13.4261,5.629733505859375,13.9631Q5.092803505859375,14.5,4.333443505859375,14.5Q3.574093505859375,14.5,3.037143505859375,13.9631Q2.500183505859375,13.4261,2.500183505859375,12.6668L2.500183505859375,12.3333L3.000183505859375,12.3333L3.000183505859375,12.8333ZM3.000183505859375,11.83333Q3.049433505859375,11.83333,3.0977335058593747,11.84294Q3.146033505859375,11.85255,3.191523505859375,11.87139Q3.237023505859375,11.89024,3.277973505859375,11.9176Q3.318913505859375,11.94496,3.353743505859375,11.97978Q3.388563505859375,12.0146,3.415923505859375,12.0555Q3.443283505859375,12.0965,3.462123505859375,12.142Q3.480973505859375,12.1875,3.490583505859375,12.2358Q3.500183505859375,12.2841,3.500183505859375,12.3333L3.500183505859375,12.6668Q3.500183505859375,13.0119,3.744243505859375,13.256Q3.988293505859375,13.5,4.333443505859375,13.5Q4.678583505859375,13.5,4.922633505859375,13.256Q5.166673505859375,13.0119,5.166673505859375,12.6668L5.166673505859375,12.3333Q5.166673505859375,12.2841,5.1762835058593755,12.2358Q5.185893505859375,12.1875,5.204733505859375,12.142Q5.223583505859375,12.0965,5.250943505859375,12.0555Q5.278303505859375,12.0146,5.313123505859375,11.97978Q5.347943505859375,11.94496,5.388893505859375,11.9176Q5.429833505859375,11.89024,5.475333505859375,11.87139Q5.520833505859375,11.85255,5.569133505859375,11.84294Q5.617433505859375,11.83333,5.666673505859375,11.83333L10.333343505859375,11.83333Q10.382583505859374,11.83333,10.430883505859375,11.84294Q10.479183505859375,11.85255,10.524683505859375,11.87139Q10.570183505859376,11.89024,10.611123505859375,11.9176Q10.652073505859375,11.94496,10.686893505859375,11.97978Q10.721713505859375,12.0146,10.749073505859375,12.0555Q10.776433505859375,12.0965,10.795283505859375,12.142Q10.814123505859374,12.1875,10.823733505859375,12.2358Q10.833343505859375,12.2841,10.833343505859375,12.3333L10.833343505859375,12.6667Q10.833343505859375,13.0117,11.077583505859375,13.2558Q11.321893505859375,13.5,11.667243505859375,13.5Q12.012543505859375,13.5,12.256843505859376,13.2558Q12.501043505859375,13.0117,12.501043505859375,12.6667L12.501043505859375,12.3333Q12.501043505859375,12.2841,12.510643505859376,12.2358Q12.520243505859375,12.1875,12.539143505859375,12.142Q12.557943505859376,12.0965,12.585343505859376,12.0555Q12.612643505859374,12.0146,12.647443505859375,11.97978Q12.682343505859375,11.94496,12.723243505859376,11.9176Q12.764243505859374,11.89024,12.809743505859375,11.87139Q12.855243505859375,11.85255,12.903543505859375,11.84294Q12.951843505859374,11.83333,13.001043505859375,11.83333L13.666643505859374,11.83333Q13.873843505859375,11.83333,14.020243505859375,11.68689Q14.166643505859374,11.54045,14.166643505859374,11.33333L14.166643505859374,8.23603Q14.166643505859374,7.30902,13.337543505859376,6.89443L13.110843505859375,6.78106Q13.009943505859376,6.73062,12.940443505859376,6.64176Q12.870943505859374,6.55289,12.846443505859375,6.44281L12.111343505859375,3.15168Q12.047643505859375,2.866044,11.819243505859376,2.683024Q11.590843505859375,2.5,11.298113505859375,2.5L4.735343505859375,2.5Q4.073943505859376,2.5,3.923793505859375,3.1441600000000003L3.1538035058593747,6.44734Q3.128463505859375,6.55603,3.0593135058593752,6.64363Q2.9901635058593747,6.73124,2.8903235058593753,6.78112L2.662983505859375,6.8947Q1.833343505859375,7.30912,1.833343505859375,8.23657L1.833343505859375,11.33333Q1.833343505859375,11.54045,1.979788505859375,11.68689Q2.126233505859375,11.83333,2.333343505859375,11.83333L3.000183505859375,11.83333Z" fill="#409EFF" fill-opacity="1"/></g><g><path d="M5.705416494140625,4.96381298828125L5.154749494140625,7.4417829882812505L4.666656494140625,7.33331298828125L4.666656494140625,6.83331298828125L11.333326494140625,6.83331298828125L11.333326494140625,7.33331298828125L10.845226494140626,7.4417829882812505L10.294566494140625,4.96381298828125Q10.265566494140625,4.83331298828125,10.131886494140625,4.83331298828125L5.868086494140625,4.83331298828125Q5.734416494140625,4.83331298828125,5.705416494140625,4.96379398828125L5.705416494140625,4.96381298828125ZM4.729225994140625,4.74689798828125Q4.818174494140625,4.34656198828125,5.138073494140625,4.08993898828125Q5.457976494140625,3.83331298828125,5.868086494140625,3.83331298828125L10.131886494140625,3.83331298828125Q10.542006494140626,3.83331298828125,10.861906494140625,4.08993898828125Q11.181806494140625,4.34656158828125,11.270746494140624,4.7468799882812505L11.821416494140625,7.2248429882812495Q11.833326494140625,7.27842298828125,11.833326494140625,7.33331298828125Q11.833326494140625,7.38256298828125,11.823716494140626,7.43085298828125Q11.814106494140624,7.47915298828125,11.795266494140625,7.52465298828125Q11.776416494140625,7.57015298828125,11.749056494140625,7.61109298828125Q11.721696494140625,7.65204298828125,11.686876494140625,7.68686298828125Q11.652056494140625,7.72168298828125,11.611106494140625,7.74904298828125Q11.570166494140626,7.77640298828125,11.524666494140625,7.79525298828125Q11.479166494140625,7.81409298828125,11.430866494140625,7.82370298828125Q11.382566494140626,7.83331298828125,11.333326494140625,7.83331298828125L4.666656494140625,7.83331298828125Q4.611769594140625,7.83331298828125,4.558189494140625,7.82140298828125Q4.510116494140625,7.81072298828125,4.465051494140625,7.7908629882812495Q4.419986494140625,7.7710129882812495,4.379661494140625,7.74274298828125Q4.3393354941406255,7.7144729882812495,4.305299494140625,7.67888298828125Q4.271263494140625,7.6432929882812495,4.244824494140625,7.60175298828125Q4.218386494140625,7.56020298828125,4.200561494140625,7.51429298828125Q4.182735494140625,7.46839298828125,4.1742084941406254,7.41988298828125Q4.165681494140625,7.371382988281249,4.166781494140625,7.32215298828125Q4.167880494140625,7.27292298828125,4.178563494140625,7.2248429882812495L4.729230094140625,4.7468799882812505L4.729225994140625,4.74689798828125Z" fill="#409EFF" fill-opacity="1"/></g></g></g></g></svg>