<svg xmlns="http://www.w3.org/2000/svg" xmlns:xlink="http://www.w3.org/1999/xlink" fill="none" version="1.1" width="16" height="16" viewBox="0 0 16 16"><defs><clipPath id="master_svg0_3_001622"><rect x="0" y="0" width="16" height="16" rx="0"/></clipPath></defs><g style="mix-blend-mode:passthrough" clip-path="url(#master_svg0_3_001622)"><g style="mix-blend-mode:passthrough"><path d="M5.5,2C5.5,2,5.5,14,5.5,14C5.5,14,4.5,14,4.5,14C4.5,14,4.5,2,4.5,2C4.5,2,3,2,3,2C3,2,3,14,3,14C3,14,13,14,13,14C13,14,13,2,13,2C13,2,5.5,2,5.5,2C5.5,2,5.5,2,5.5,2ZM2.5,1C2.5,1,13.5,1,13.5,1C13.646,1,13.7658,1.0468333,13.8595,1.1405C13.9532,1.234167,14,1.354,14,1.5C14,1.5,14,14.5,14,14.5C14,14.646,13.9532,14.7658,13.8595,14.8595C13.7658,14.9532,13.646,15,13.5,15C13.5,15,2.5,15,2.5,15C2.354,15,2.234167,14.9532,2.1405,14.8595C2.0468334,14.7658,1.9999999999999998,14.646,2,14.5C2,14.5,2,1.5,2,1.5C2,1.354,2.0468334,1.234167,2.1405,1.1405C2.234167,1.0468333,2.354,1.0000000000000002,2.5,1C2.5,1,2.5,1,2.5,1ZM7.5,4C7.5,4,10.5,4,10.5,4C10.83333,4,11,4.16667,11,4.5C11,4.83333,10.83333,5,10.5,5C10.5,5,7.5,5,7.5,5C7.16667,5,7,4.83333,7,4.5C7,4.16667,7.16667,4,7.5,4C7.5,4,7.5,4,7.5,4ZM7.5,7C7.5,7,10.5,7,10.5,7C10.83333,7,11,7.16667,11,7.5C11,7.83333,10.83333,8,10.5,8C10.5,8,7.5,8,7.5,8C7.16667,8,7,7.83333,7,7.5C7,7.16667,7.16667,7,7.5,7C7.5,7,7.5,7,7.5,7ZM7.5,10C7.5,10,10.5,10,10.5,10C10.83333,10,11,10.16667,11,10.5C11,10.83333,10.83333,11,10.5,11C10.5,11,7.5,11,7.5,11C7.16667,11,7,10.83333,7,10.5C7,10.16667,7.16667,10,7.5,10C7.5,10,7.5,10,7.5,10Z" fill="#409EFF" fill-opacity="1"/></g></g></svg>