<svg t="1696684350053" class="icon" viewBox="0 0 1024 1024" version="1.1" xmlns="http://www.w3.org/2000/svg" p-id="4081" width="16" height="16"><path d="M736.232934 118.192202h-448.922521L62.848129 506.970675 287.309389 895.749148h448.922521l224.46126-388.778473L736.232934 118.192202zM714.634073 858.33945H308.90825l-202.862399-351.368775L308.909274 155.602924h405.725823l202.862399 351.368775L714.634073 858.33945z" fill="#ffffff" p-id="4082"></path><path d="M586.137489 389.350825h35.451005v37.60014h-35.451005zM586.137489 463.476027h35.451005v36.526085h-35.451005z" fill="#ffffff" p-id="4083"></path><path d="M454.000992 299.110692v336.251107h-110.651287v-61.96042c17.313901-7.12829 29.507351-24.158574 29.507351-44.043451 0-26.299518-21.31934-47.618859-47.618859-47.618859s-47.618859 21.31934-47.618858 47.618859c0 19.352457 11.551474 35.996736 28.130225 43.445502v99.084455h148.251428v37.60014h224.525765V299.110692H454.000992z m187.99968 372.777193H492.675188V336.710832h149.325484v335.177053z" fill="#ffffff" p-id="4084"></path></svg>