<svg xmlns="http://www.w3.org/2000/svg" xmlns:xlink="http://www.w3.org/1999/xlink" fill="none" version="1.1" width="16" height="16" viewBox="0 0 16 16"><g><g><rect x="0" y="0" width="16" height="16" rx="0" fill="#FFFFFF" fill-opacity="0"/></g><g><g><path d="M0.833343505859375,12.33335701171875L0.833343505859375,3.66668701171875Q0.833343505859375,3.04536701171875,1.272683305859375,2.60602681171875Q1.7120235058593751,2.16668701171875,2.333343505859375,2.16668701171875L13.666643505859374,2.16668701171875Q14.288043505859376,2.16668701171875,14.727343505859375,2.60602681171875Q15.166643505859374,3.04536601171875,15.166643505859374,3.66668701171875L15.166643505859374,12.33335701171875Q15.166643505859374,12.95468701171875,14.727343505859375,13.39398701171875Q14.288043505859376,13.83338701171875,13.666643505859374,13.83338701171875L2.333343505859375,13.83338701171875Q1.7120235058593751,13.83338701171875,1.272683305859375,13.39398701171875Q0.833343505859375,12.95468701171875,0.833343505859375,12.33335701171875ZM1.833343505859375,12.33335701171875Q1.833343505859375,12.54045701171875,1.979790505859375,12.68688701171875Q2.126238505859375,12.83338701171875,2.333343505859375,12.83338701171875L13.666643505859374,12.83338701171875Q13.873743505859375,12.83338701171875,14.020243505859375,12.68688701171875Q14.166643505859374,12.54045701171875,14.166643505859374,12.33335701171875L14.166643505859374,3.66668701171875Q14.166643505859374,3.45958101171875,14.020243505859375,3.31313401171875Q13.873743505859375,3.16668701171875,13.666643505859374,3.16668701171875L2.333343505859375,3.16668701171875Q2.126236505859375,3.16668701171875,1.979790505859375,3.31313401171875Q1.833343505859375,3.45958001171875,1.833343505859375,3.66668701171875L1.833343505859375,12.33335701171875Z" fill="#409EFF" fill-opacity="1"/></g><g><path d="M8.833343505859375,7.39998298828125L8.833343505859375,5.93331298828125Q8.833343505859375,5.47767798828125,9.155526505859376,5.15549598828125Q9.477708505859376,4.83331298828125,9.933343505859375,4.83331298828125L11.400013505859375,4.83331298828125Q11.855643505859375,4.83331298828125,12.177823505859376,5.15549498828125Q12.500013505859375,5.47767798828125,12.500013505859375,5.93331298828125L12.500013505859375,7.39998298828125Q12.500013505859375,7.8556129882812495,12.177823505859376,8.17779298828125Q11.855643505859375,8.49998298828125,11.400013505859375,8.49998298828125L9.933343505859375,8.49998298828125Q9.477708505859376,8.49998298828125,9.155525505859375,8.17779298828125Q8.833343505859375,7.8556129882812495,8.833343505859375,7.39998298828125ZM9.833343505859375,7.39998298828125Q9.833343505859375,7.49998298828125,9.933343505859375,7.49998298828125L11.400013505859375,7.49998298828125Q11.500013505859375,7.49998298828125,11.500013505859375,7.39998298828125L11.500013505859375,5.93331298828125Q11.500013505859375,5.83331298828125,11.400013505859375,5.83331298828125L9.933343505859375,5.83331298828125Q9.833343505859375,5.83331298828125,9.833343505859375,5.93331298828125L9.833343505859375,7.39998298828125Z" fill="#409EFF" fill-opacity="1"/></g><g><path d="M12,11.16668701171875L4,11.16668701171875Q3.9507543,11.16668701171875,3.9024549,11.15708001171875Q3.854155,11.147472011718751,3.808658,11.12862701171875Q3.763161,11.10978101171875,3.722215,11.08242201171875Q3.681269,11.05506201171875,3.646447,11.02024001171875Q3.611625,10.98541801171875,3.584265,10.94447201171875Q3.556906,10.90352601171875,3.5380599999999998,10.85802901171875Q3.519215,10.81253201171875,3.509607,10.76423211171875Q3.5,10.71593271171875,3.5,10.66668701171875Q3.5,10.61744131171875,3.509607,10.56914191171875Q3.519215,10.52084201171875,3.5380599999999998,10.47534501171875Q3.556906,10.42984801171875,3.584265,10.38890201171875Q3.611625,10.34795601171875,3.646447,10.31313401171875Q3.681269,10.27831201171875,3.722215,10.25095201171875Q3.763161,10.22359301171875,3.808658,10.20474701171875Q3.854155,10.185902011718749,3.9024549,10.17629401171875Q3.9507543,10.16668701171875,4,10.16668701171875L12,10.16668701171875Q12.04924,10.16668701171875,12.09754,10.17629401171875Q12.14584,10.185902011718749,12.19134,10.20474701171875Q12.23684,10.22359301171875,12.27778,10.25095201171875Q12.31873,10.27831201171875,12.35355,10.31313401171875Q12.38837,10.34795601171875,12.41573,10.38890201171875Q12.44309,10.42984801171875,12.46194,10.47534501171875Q12.48078,10.52084201171875,12.49039,10.56914191171875Q12.5,10.61744131171875,12.5,10.66668701171875Q12.5,10.71593271171875,12.49039,10.76423211171875Q12.48078,10.81253201171875,12.46194,10.85802901171875Q12.44309,10.90352601171875,12.41573,10.94447201171875Q12.38837,10.98541801171875,12.35355,11.02024001171875Q12.31873,11.05506201171875,12.27778,11.08242201171875Q12.23684,11.10978101171875,12.19134,11.12862701171875Q12.14584,11.147472011718751,12.09754,11.15708001171875Q12.04924,11.16668701171875,12,11.16668701171875ZM12.5,10.66668701171875Q12.5,10.71593271171875,12.49039,10.76423211171875Q12.48078,10.81253201171875,12.46194,10.85802901171875Q12.44309,10.90352601171875,12.41573,10.94447201171875Q12.38837,10.98541801171875,12.35355,11.02024001171875Q12.31873,11.05506201171875,12.27778,11.08242201171875Q12.23684,11.10978101171875,12.19134,11.12862701171875Q12.14584,11.147472011718751,12.09754,11.15708001171875Q12.04924,11.16668701171875,12,11.16668701171875Q11.95075,11.16668701171875,11.90245,11.15708001171875Q11.85415,11.147472011718751,11.80866,11.12862701171875Q11.76316,11.10978101171875,11.72221,11.08242201171875Q11.68127,11.05506201171875,11.64645,11.02024001171875Q11.61162,10.98541801171875,11.58426,10.94447201171875Q11.556899999999999,10.90352601171875,11.53806,10.85802901171875Q11.519210000000001,10.81253201171875,11.50961,10.76423211171875Q11.5,10.71593271171875,11.5,10.66668701171875Q11.5,10.61744131171875,11.50961,10.56914191171875Q11.519210000000001,10.52084201171875,11.53806,10.47534501171875Q11.556899999999999,10.42984801171875,11.58426,10.38890201171875Q11.61162,10.34795601171875,11.64645,10.31313401171875Q11.68127,10.27831201171875,11.72221,10.25095201171875Q11.76316,10.22359301171875,11.80866,10.20474701171875Q11.85415,10.185902011718749,11.90245,10.17629401171875Q11.95075,10.16668701171875,12,10.16668701171875Q12.04924,10.16668701171875,12.09754,10.17629401171875Q12.14584,10.185902011718749,12.19134,10.20474701171875Q12.23684,10.22359301171875,12.27778,10.25095201171875Q12.31873,10.27831201171875,12.35355,10.31313401171875Q12.38837,10.34795601171875,12.41573,10.38890201171875Q12.44309,10.42984801171875,12.46194,10.47534501171875Q12.48078,10.52084201171875,12.49039,10.56914191171875Q12.5,10.61744131171875,12.5,10.66668701171875ZM4.5,10.66668701171875Q4.5,10.71593271171875,4.490393,10.76423211171875Q4.480785,10.81253201171875,4.46194,10.85802901171875Q4.443094,10.90352601171875,4.415735,10.94447201171875Q4.388375,10.98541801171875,4.353553,11.02024001171875Q4.318731,11.05506201171875,4.277785,11.08242201171875Q4.236839,11.10978101171875,4.191342,11.12862701171875Q4.145845,11.147472011718751,4.0975451,11.15708001171875Q4.0492457,11.16668701171875,4,11.16668701171875Q3.9507543,11.16668701171875,3.9024549,11.15708001171875Q3.854155,11.147472011718751,3.808658,11.12862701171875Q3.763161,11.10978101171875,3.722215,11.08242201171875Q3.681269,11.05506201171875,3.646447,11.02024001171875Q3.611625,10.98541801171875,3.584265,10.94447201171875Q3.556906,10.90352601171875,3.5380599999999998,10.85802901171875Q3.519215,10.81253201171875,3.509607,10.76423211171875Q3.5,10.71593271171875,3.5,10.66668701171875Q3.5,10.61744131171875,3.509607,10.56914191171875Q3.519215,10.52084201171875,3.5380599999999998,10.47534501171875Q3.556906,10.42984801171875,3.584265,10.38890201171875Q3.611625,10.34795601171875,3.646447,10.31313401171875Q3.681269,10.27831201171875,3.722215,10.25095201171875Q3.763161,10.22359301171875,3.808658,10.20474701171875Q3.854155,10.185902011718749,3.9024549,10.17629401171875Q3.9507543,10.16668701171875,4,10.16668701171875Q4.0492457,10.16668701171875,4.0975451,10.17629401171875Q4.145845,10.185902011718749,4.191342,10.20474701171875Q4.236839,10.22359301171875,4.277785,10.25095201171875Q4.318731,10.27831201171875,4.353553,10.31313401171875Q4.388375,10.34795601171875,4.415735,10.38890201171875Q4.443094,10.42984801171875,4.46194,10.47534501171875Q4.480785,10.52084201171875,4.490393,10.56914191171875Q4.5,10.61744131171875,4.5,10.66668701171875Z" fill="#409EFF" fill-opacity="1"/></g><g><path d="M6,5.83331298828125L4,5.83331298828125Q3.9507543,5.83331298828125,3.9024549,5.82370598828125Q3.854155,5.81409798828125,3.808658,5.79525298828125Q3.763161,5.77640698828125,3.722215,5.74904798828125Q3.681269,5.72168798828125,3.646447,5.68686598828125Q3.611625,5.65204398828125,3.584265,5.61109798828125Q3.556906,5.57015198828125,3.5380599999999998,5.52465498828125Q3.519215,5.47915798828125,3.509607,5.43085808828125Q3.5,5.38255868828125,3.5,5.33331298828125Q3.5,5.28406728828125,3.509607,5.23576788828125Q3.519215,5.18746798828125,3.5380599999999998,5.14197098828125Q3.556906,5.09647398828125,3.584265,5.05552798828125Q3.611625,5.01458198828125,3.646447,4.97975998828125Q3.681269,4.94493798828125,3.722215,4.91757798828125Q3.763161,4.89021898828125,3.808658,4.87137298828125Q3.854155,4.85252798828125,3.9024549,4.84291998828125Q3.9507543,4.83331298828125,4,4.83331298828125L6,4.83331298828125Q6.04925,4.83331298828125,6.09754,4.84291998828125Q6.14584,4.85252798828125,6.19134,4.87137298828125Q6.23684,4.89021898828125,6.27778,4.91757798828125Q6.31873,4.94493798828125,6.35355,4.97975998828125Q6.38838,5.01458198828125,6.41573,5.05552798828125Q6.44309,5.09647398828125,6.46194,5.14197098828125Q6.48078,5.18746798828125,6.49039,5.23576788828125Q6.5,5.28406728828125,6.5,5.33331298828125Q6.5,5.38255868828125,6.49039,5.43085808828125Q6.48078,5.47915798828125,6.46194,5.52465498828125Q6.44309,5.57015198828125,6.41573,5.61109798828125Q6.38838,5.65204398828125,6.35355,5.68686598828125Q6.31873,5.72168798828125,6.2777899999999995,5.74904798828125Q6.23684,5.77640698828125,6.19134,5.79525298828125Q6.14584,5.81409798828125,6.09754,5.82370598828125Q6.04925,5.83331298828125,6,5.83331298828125ZM6.5,5.33331298828125Q6.5,5.38255868828125,6.49039,5.43085808828125Q6.48078,5.47915798828125,6.46194,5.52465498828125Q6.44309,5.57015198828125,6.41573,5.61109798828125Q6.38838,5.65204398828125,6.35355,5.68686598828125Q6.31873,5.72168798828125,6.2777899999999995,5.74904798828125Q6.23684,5.77640698828125,6.19134,5.79525298828125Q6.14584,5.81409798828125,6.09754,5.82370598828125Q6.04925,5.83331298828125,6,5.83331298828125Q5.95075,5.83331298828125,5.90245,5.82370598828125Q5.85416,5.81409798828125,5.80866,5.79525298828125Q5.76316,5.77640698828125,5.7222100000000005,5.74904798828125Q5.68127,5.72168798828125,5.64645,5.68686598828125Q5.61162,5.65204398828125,5.5842600000000004,5.61109798828125Q5.55691,5.57015198828125,5.53806,5.52465498828125Q5.51921,5.47915798828125,5.50961,5.43085808828125Q5.5,5.38255868828125,5.5,5.33331298828125Q5.5,5.28406728828125,5.50961,5.23576788828125Q5.51921,5.18746798828125,5.53806,5.14197098828125Q5.55691,5.09647398828125,5.5842600000000004,5.05552798828125Q5.61162,5.01458198828125,5.64645,4.97975998828125Q5.68127,4.94493798828125,5.7222100000000005,4.91757798828125Q5.76316,4.89021898828125,5.80866,4.87137298828125Q5.85416,4.85252798828125,5.90245,4.84291998828125Q5.95075,4.83331298828125,6,4.83331298828125Q6.04925,4.83331298828125,6.09754,4.84291998828125Q6.14584,4.85252798828125,6.19134,4.87137298828125Q6.23684,4.89021898828125,6.27778,4.91757798828125Q6.31873,4.94493798828125,6.35355,4.97975998828125Q6.38838,5.01458198828125,6.41573,5.05552798828125Q6.44309,5.09647398828125,6.46194,5.14197098828125Q6.48078,5.18746798828125,6.49039,5.23576788828125Q6.5,5.28406728828125,6.5,5.33331298828125ZM4.5,5.33331298828125Q4.5,5.38255868828125,4.490393,5.43085808828125Q4.480785,5.47915798828125,4.46194,5.52465498828125Q4.443094,5.57015198828125,4.415735,5.61109798828125Q4.388375,5.65204398828125,4.353553,5.68686598828125Q4.318731,5.72168798828125,4.277785,5.74904798828125Q4.236839,5.77640698828125,4.191342,5.79525298828125Q4.145845,5.81409798828125,4.0975451,5.82370598828125Q4.0492457,5.83331298828125,4,5.83331298828125Q3.9507543,5.83331298828125,3.9024549,5.82370598828125Q3.854155,5.81409798828125,3.808658,5.79525298828125Q3.763161,5.77640698828125,3.722215,5.74904798828125Q3.681269,5.72168798828125,3.646447,5.68686598828125Q3.611625,5.65204398828125,3.584265,5.61109798828125Q3.556906,5.57015198828125,3.5380599999999998,5.52465498828125Q3.519215,5.47915798828125,3.509607,5.43085808828125Q3.5,5.38255868828125,3.5,5.33331298828125Q3.5,5.28406728828125,3.509607,5.23576788828125Q3.519215,5.18746798828125,3.5380599999999998,5.14197098828125Q3.556906,5.09647398828125,3.584265,5.05552798828125Q3.611625,5.01458198828125,3.646447,4.97975998828125Q3.681269,4.94493798828125,3.722215,4.91757798828125Q3.763161,4.89021898828125,3.808658,4.87137298828125Q3.854155,4.85252798828125,3.9024549,4.84291998828125Q3.9507543,4.83331298828125,4,4.83331298828125Q4.0492457,4.83331298828125,4.0975451,4.84291998828125Q4.145845,4.85252798828125,4.191342,4.87137298828125Q4.236839,4.89021898828125,4.277785,4.91757798828125Q4.318731,4.94493798828125,4.353553,4.97975998828125Q4.388375,5.01458198828125,4.415735,5.05552798828125Q4.443094,5.09647398828125,4.46194,5.14197098828125Q4.480785,5.18746798828125,4.490393,5.23576788828125Q4.5,5.28406728828125,4.5,5.33331298828125Z" fill="#409EFF" fill-opacity="1"/></g><g><path d="M6,8.5L4,8.5Q3.9507543,8.5,3.9024549,8.490393Q3.854155,8.480785000000001,3.808658,8.46194Q3.763161,8.443094,3.722215,8.415735Q3.681269,8.388375,3.646447,8.353553Q3.611625,8.318731,3.584265,8.277785Q3.556906,8.236839,3.5380599999999998,8.191342Q3.519215,8.145845,3.509607,8.0975451Q3.5,8.0492457,3.5,8Q3.5,7.9507543,3.509607,7.9024549Q3.519215,7.854155,3.5380599999999998,7.808658Q3.556906,7.763161,3.584265,7.722215Q3.611625,7.681269,3.646447,7.646447Q3.681269,7.611625,3.722215,7.584265Q3.763161,7.556906,3.808658,7.53806Q3.854155,7.519215,3.9024549,7.509607Q3.9507543,7.5,4,7.5L6,7.5Q6.04925,7.5,6.09754,7.509607Q6.14584,7.519215,6.19134,7.53806Q6.23684,7.556906,6.27778,7.584265Q6.31873,7.611625,6.35355,7.646447Q6.38838,7.681269,6.41573,7.722215Q6.44309,7.763161,6.46194,7.808658Q6.48078,7.854155,6.49039,7.9024549Q6.5,7.9507543,6.5,8Q6.5,8.0492457,6.49039,8.0975451Q6.48078,8.145845,6.46194,8.191342Q6.44309,8.236839,6.41573,8.277785Q6.38838,8.318731,6.35355,8.353553Q6.31873,8.388375,6.2777899999999995,8.415735Q6.23684,8.443094,6.19134,8.46194Q6.14584,8.480785000000001,6.09754,8.490393Q6.04925,8.5,6,8.5ZM6.5,8Q6.5,8.0492457,6.49039,8.0975451Q6.48078,8.145845,6.46194,8.191342Q6.44309,8.236839,6.41573,8.277785Q6.38838,8.318731,6.35355,8.353553Q6.31873,8.388375,6.2777899999999995,8.415735Q6.23684,8.443094,6.19134,8.46194Q6.14584,8.480785000000001,6.09754,8.490393Q6.04925,8.5,6,8.5Q5.95075,8.5,5.90245,8.490393Q5.85416,8.480785000000001,5.80866,8.46194Q5.76316,8.443094,5.7222100000000005,8.415735Q5.68127,8.388375,5.64645,8.353553Q5.61162,8.318731,5.5842600000000004,8.277785Q5.55691,8.236839,5.53806,8.191342Q5.51921,8.145845,5.50961,8.0975451Q5.5,8.0492457,5.5,8Q5.5,7.9507543,5.50961,7.9024549Q5.51921,7.854155,5.53806,7.808658Q5.55691,7.763161,5.5842600000000004,7.722215Q5.61162,7.681269,5.64645,7.646447Q5.68127,7.611625,5.7222100000000005,7.584265Q5.76316,7.556906,5.80866,7.53806Q5.85416,7.519215,5.90245,7.509607Q5.95075,7.5,6,7.5Q6.04925,7.5,6.09754,7.509607Q6.14584,7.519215,6.19134,7.53806Q6.23684,7.556906,6.27778,7.584265Q6.31873,7.611625,6.35355,7.646447Q6.38838,7.681269,6.41573,7.722215Q6.44309,7.763161,6.46194,7.808658Q6.48078,7.854155,6.49039,7.9024549Q6.5,7.9507543,6.5,8ZM4.5,8Q4.5,8.0492457,4.490393,8.0975451Q4.480785,8.145845,4.46194,8.191342Q4.443094,8.236839,4.415735,8.277785Q4.388375,8.318731,4.353553,8.353553Q4.318731,8.388375,4.277785,8.415735Q4.236839,8.443094,4.191342,8.46194Q4.145845,8.480785000000001,4.0975451,8.490393Q4.0492457,8.5,4,8.5Q3.9507543,8.5,3.9024549,8.490393Q3.854155,8.480785000000001,3.808658,8.46194Q3.763161,8.443094,3.722215,8.415735Q3.681269,8.388375,3.646447,8.353553Q3.611625,8.318731,3.584265,8.277785Q3.556906,8.236839,3.5380599999999998,8.191342Q3.519215,8.145845,3.509607,8.0975451Q3.5,8.0492457,3.5,8Q3.5,7.9507543,3.509607,7.9024549Q3.519215,7.854155,3.5380599999999998,7.808658Q3.556906,7.763161,3.584265,7.722215Q3.611625,7.681269,3.646447,7.646447Q3.681269,7.611625,3.722215,7.584265Q3.763161,7.556906,3.808658,7.53806Q3.854155,7.519215,3.9024549,7.509607Q3.9507543,7.5,4,7.5Q4.0492457,7.5,4.0975451,7.509607Q4.145845,7.519215,4.191342,7.53806Q4.236839,7.556906,4.277785,7.584265Q4.318731,7.611625,4.353553,7.646447Q4.388375,7.681269,4.415735,7.722215Q4.443094,7.763161,4.46194,7.808658Q4.480785,7.854155,4.490393,7.9024549Q4.5,7.9507543,4.5,8Z" fill="#409EFF" fill-opacity="1"/></g></g></g></svg>