<svg xmlns="http://www.w3.org/2000/svg" xmlns:xlink="http://www.w3.org/1999/xlink" fill="none" version="1.1" width="16" height="16" viewBox="0 0 16 16"><defs><clipPath id="master_svg0_2315_21707"><rect x="0" y="0" width="16" height="16" rx="0"/></clipPath></defs><g clip-path="url(#master_svg0_2315_21707)"><g><g><rect x="0" y="0" width="16" height="16" rx="0" fill="#FFFFFF" fill-opacity="0.009999999776482582"/></g><g><g><path d="M1.5,5.66667L1.5,2Q1.5,1.9507543,1.509607,1.9024549Q1.519215,1.854155,1.53806,1.8086579999999999Q1.5569060000000001,1.763161,1.584265,1.722215Q1.611625,1.681269,1.646447,1.646447Q1.681269,1.611625,1.722215,1.584265Q1.763161,1.5569060000000001,1.8086579999999999,1.53806Q1.854155,1.519215,1.9024549,1.509607Q1.9507543,1.5,2,1.5L6.66667,1.5Q6.71591,1.5,6.76421,1.509607Q6.81251,1.519215,6.85801,1.53806Q6.90351,1.5569060000000001,6.94445,1.584265Q6.9854,1.611625,7.02022,1.646447Q7.05504,1.681269,7.0824,1.722215Q7.10976,1.763161,7.12861,1.8086579999999999Q7.14745,1.854155,7.15706,1.9024549Q7.16667,1.9507543,7.16667,2L7.16667,5.66667Q7.16667,5.71591,7.15706,5.76421Q7.14745,5.81251,7.12861,5.85801Q7.10976,5.90351,7.0824,5.94445Q7.05504,5.9854,7.02022,6.02022Q6.9854,6.05504,6.94445,6.0824Q6.90351,6.10976,6.85801,6.12861Q6.81251,6.14745,6.76421,6.15706Q6.71591,6.16667,6.66667,6.16667L2,6.16667Q1.9507543,6.16667,1.9024549,6.15706Q1.854155,6.14745,1.8086579999999999,6.12861Q1.763161,6.10976,1.722215,6.0824Q1.681269,6.05504,1.646447,6.02022Q1.611625,5.9854,1.584265,5.94445Q1.5569060000000001,5.90351,1.53806,5.85801Q1.519215,5.81251,1.509607,5.76421Q1.5,5.71591,1.5,5.66667ZM2.5,2.5L2.5,5.16667L6.16667,5.16667L6.16667,2.5L2.5,2.5Z" fill="#FFFFFF" fill-opacity="1"/></g><g><path d="M8.833343505859375,13.99998298828125L8.833343505859375,10.33331298828125Q8.833343505859375,10.28406728828125,8.842950505859376,10.23576788828125Q8.852558505859374,10.18746798828125,8.871403505859375,10.14197098828125Q8.890249505859375,10.09647398828125,8.917608505859375,10.05552798828125Q8.944968505859375,10.01458198828125,8.979790505859375,9.97975998828125Q9.014612505859375,9.94493798828125,9.055558505859375,9.91757798828125Q9.096504505859375,9.89021898828125,9.142001505859374,9.87137298828125Q9.187498505859375,9.852527988281249,9.235798405859375,9.84291998828125Q9.284097805859375,9.83331298828125,9.333343505859375,9.83331298828125L14.000013505859375,9.83331298828125Q14.049253505859376,9.83331298828125,14.097553505859375,9.84291998828125Q14.145853505859375,9.852527988281249,14.191353505859375,9.87137298828125Q14.236853505859376,9.89021898828125,14.277793505859375,9.91757798828125Q14.318743505859375,9.94493798828125,14.353563505859375,9.97975998828125Q14.388383505859375,10.01458198828125,14.415743505859375,10.05552798828125Q14.443103505859375,10.09647398828125,14.461953505859375,10.14197098828125Q14.480793505859374,10.18746798828125,14.490403505859376,10.23576788828125Q14.500013505859375,10.28406728828125,14.500013505859375,10.33331298828125L14.500013505859375,13.99998298828125Q14.500013505859375,14.049222988281251,14.490403505859376,14.09752298828125Q14.480793505859374,14.14582298828125,14.461953505859375,14.19132298828125Q14.443103505859375,14.23682298828125,14.415743505859375,14.27776298828125Q14.388383505859375,14.31871298828125,14.353563505859375,14.35353298828125Q14.318743505859375,14.38835298828125,14.277793505859375,14.41571298828125Q14.236853505859376,14.44307298828125,14.191353505859375,14.46192298828125Q14.145853505859375,14.48076298828125,14.097553505859375,14.490372988281251Q14.049253505859376,14.49998298828125,14.000013505859375,14.49998298828125L9.333343505859375,14.49998298828125Q9.284097805859375,14.49998298828125,9.235798405859375,14.490372988281251Q9.187498505859375,14.48076298828125,9.142001505859374,14.46192298828125Q9.096504505859375,14.44307298828125,9.055558505859375,14.41571298828125Q9.014612505859375,14.38835298828125,8.979790505859375,14.35353298828125Q8.944968505859375,14.31871298828125,8.917608505859375,14.27776298828125Q8.890249505859375,14.23682298828125,8.871403505859375,14.19132298828125Q8.852558505859374,14.14582298828125,8.842950505859376,14.09752298828125Q8.833343505859375,14.049222988281251,8.833343505859375,13.99998298828125ZM9.833343505859375,10.83331298828125L9.833343505859375,13.49998298828125L13.500013505859375,13.49998298828125L13.500013505859375,10.83331298828125L9.833343505859375,10.83331298828125Z" fill="#FFFFFF" fill-opacity="1"/></g><g><path d="M8.833343505859375,7.66667L8.833343505859375,2Q8.833343505859375,1.9507543,8.842950505859376,1.9024549Q8.852558505859374,1.854155,8.871403505859375,1.8086579999999999Q8.890249505859375,1.763161,8.917608505859375,1.722215Q8.944968505859375,1.681269,8.979790505859375,1.646447Q9.014612505859375,1.611625,9.055558505859375,1.584265Q9.096504505859375,1.5569060000000001,9.142001505859374,1.53806Q9.187498505859375,1.519215,9.235798405859375,1.509607Q9.284097805859375,1.5,9.333343505859375,1.5L14.000013505859375,1.5Q14.049253505859376,1.5,14.097553505859375,1.509607Q14.145853505859375,1.519215,14.191353505859375,1.53806Q14.236853505859376,1.5569060000000001,14.277793505859375,1.584265Q14.318743505859375,1.611625,14.353563505859375,1.646447Q14.388383505859375,1.681269,14.415743505859375,1.722215Q14.443103505859375,1.763161,14.461953505859375,1.8086579999999999Q14.480793505859374,1.854155,14.490403505859376,1.9024549Q14.500013505859375,1.9507543,14.500013505859375,2L14.500013505859375,7.66667Q14.500013505859375,7.71591,14.490403505859376,7.76421Q14.480793505859374,7.81251,14.461953505859375,7.85801Q14.443103505859375,7.9035,14.415743505859375,7.94445Q14.388383505859375,7.9854,14.353563505859375,8.02022Q14.318743505859375,8.05504,14.277793505859375,8.0824Q14.236853505859376,8.10976,14.191353505859375,8.12861Q14.145853505859375,8.14745,14.097553505859375,8.157060000000001Q14.049253505859376,8.16667,14.000013505859375,8.16667L9.333343505859375,8.16667Q9.284097805859375,8.16667,9.235798405859375,8.157060000000001Q9.187498505859375,8.14745,9.142001505859374,8.12861Q9.096504505859375,8.10976,9.055558505859375,8.0824Q9.014612505859375,8.05504,8.979790505859375,8.02022Q8.944968505859375,7.9854,8.917608505859375,7.94445Q8.890249505859375,7.9035,8.871403505859375,7.85801Q8.852558505859374,7.81251,8.842950505859376,7.76421Q8.833343505859375,7.71591,8.833343505859375,7.66667ZM9.833343505859375,2.5L9.833343505859375,7.16667L13.500013505859375,7.16667L13.500013505859375,2.5L9.833343505859375,2.5Z" fill="#FFFFFF" fill-opacity="1"/></g><g><path d="M1.5,13.99998298828125L1.5,8.33331298828125Q1.5,8.28406728828125,1.509607,8.23576788828125Q1.519215,8.18746798828125,1.53806,8.14197098828125Q1.5569060000000001,8.09647398828125,1.584265,8.05552798828125Q1.611625,8.01458198828125,1.646447,7.97975998828125Q1.681269,7.94493798828125,1.722215,7.91757798828125Q1.763161,7.89021898828125,1.8086579999999999,7.87137298828125Q1.854155,7.85252798828125,1.9024549,7.84291998828125Q1.9507543,7.83331298828125,2,7.83331298828125L6.66667,7.83331298828125Q6.71591,7.83331298828125,6.76421,7.84291998828125Q6.81251,7.85252798828125,6.85801,7.87137298828125Q6.90351,7.89021898828125,6.94445,7.91757798828125Q6.9854,7.94493798828125,7.02022,7.97975998828125Q7.05504,8.01458198828125,7.0824,8.05552798828125Q7.10976,8.09647398828125,7.12861,8.14197098828125Q7.14745,8.18746798828125,7.15706,8.23576788828125Q7.16667,8.28406728828125,7.16667,8.33331298828125L7.16667,13.99998298828125Q7.16667,14.049222988281251,7.15706,14.09752298828125Q7.14745,14.14582298828125,7.12861,14.19132298828125Q7.10976,14.236812988281251,7.0824,14.27776298828125Q7.05504,14.31871298828125,7.02022,14.35353298828125Q6.9854,14.38835298828125,6.94445,14.41571298828125Q6.90351,14.44307298828125,6.85801,14.46192298828125Q6.81251,14.48076298828125,6.76421,14.490372988281251Q6.71591,14.49998298828125,6.66667,14.49998298828125L2,14.49998298828125Q1.9507543,14.49998298828125,1.9024549,14.490372988281251Q1.854155,14.48076298828125,1.8086579999999999,14.46192298828125Q1.763161,14.44307298828125,1.722215,14.41571298828125Q1.681269,14.38835298828125,1.646447,14.35353298828125Q1.611625,14.31871298828125,1.584265,14.27776298828125Q1.5569060000000001,14.236812988281251,1.53806,14.19132298828125Q1.519215,14.14582298828125,1.509607,14.09752298828125Q1.5,14.049222988281251,1.5,13.99998298828125ZM2.5,8.83331298828125L2.5,13.49998298828125L6.16667,13.49998298828125L6.16667,8.83331298828125L2.5,8.83331298828125Z" fill="#FFFFFF" fill-opacity="1"/></g></g></g></g></svg>