<svg xmlns="http://www.w3.org/2000/svg" xmlns:xlink="http://www.w3.org/1999/xlink" fill="none" version="1.1" width="16" height="16" viewBox="0 0 16 16"><defs><clipPath id="master_svg0_21_95010"><rect x="0" y="0" width="16" height="16" rx="0"/></clipPath></defs><g clip-path="url(#master_svg0_21_95010)"><g><path d="M1.5,13L1.5,3Q1.5,2.37868,1.9393398,1.9393398Q2.37868,1.5,3,1.5L13,1.5Q13.6213,1.5,14.0607,1.9393398Q14.5,2.378679,14.5,3L14.5,13Q14.5,13.6213,14.0607,14.0607Q13.6213,14.5,13,14.5L3,14.5Q2.378679,14.5,1.9393398,14.0607Q1.5,13.6213,1.5,13ZM2.5,13Q2.5,13.2071,2.646447,13.3536Q2.792894,13.5,3,13.5L13,13.5Q13.2071,13.5,13.3536,13.3536Q13.5,13.2071,13.5,13L13.5,3Q13.5,2.792894,13.3536,2.646447Q13.2071,2.5,13,2.5L3,2.5Q2.792893,2.5,2.646447,2.646447Q2.5,2.792893,2.5,3L2.5,13Z" fill="#409EFF" fill-opacity="1"/></g><g><path d="M3.833343505859375,6.99998298828125L3.833343505859375,4.33331298828125Q3.833343505859375,4.28406728828125,3.842950505859375,4.23576788828125Q3.852558505859375,4.18746798828125,3.8714035058593748,4.14197098828125Q3.890249505859375,4.09647398828125,3.917608505859375,4.05552798828125Q3.944968505859375,4.01458198828125,3.979790505859375,3.97975998828125Q4.014612505859375,3.94493798828125,4.055558505859375,3.91757798828125Q4.096504505859375,3.89021898828125,4.142001505859375,3.8713729882812498Q4.187498505859375,3.85252798828125,4.235798405859375,3.84291998828125Q4.284097805859375,3.83331298828125,4.333343505859375,3.83331298828125L7.000013505859375,3.83331298828125Q7.049253505859375,3.83331298828125,7.097553505859375,3.84291998828125Q7.145853505859375,3.85252798828125,7.191353505859375,3.8713729882812498Q7.236853505859375,3.89021898828125,7.277793505859375,3.91757798828125Q7.318743505859375,3.94493798828125,7.353563505859375,3.97975998828125Q7.388383505859375,4.01458198828125,7.415743505859375,4.05552798828125Q7.443103505859375,4.09647398828125,7.461953505859375,4.14197098828125Q7.480793505859375,4.18746798828125,7.4904035058593745,4.23576788828125Q7.500013505859375,4.28406728828125,7.500013505859375,4.33331298828125L7.500013505859375,6.99998298828125Q7.500013505859375,7.04922298828125,7.4904035058593745,7.09752298828125Q7.480793505859375,7.14582298828125,7.461953505859375,7.19132298828125Q7.443103505859375,7.23682298828125,7.415743505859375,7.27776298828125Q7.388383505859375,7.31871298828125,7.353563505859375,7.35353298828125Q7.318743505859375,7.38835298828125,7.277793505859375,7.41571298828125Q7.236853505859375,7.44307298828125,7.191353505859375,7.46192298828125Q7.145853505859375,7.48076298828125,7.097553505859375,7.4903729882812495Q7.049253505859375,7.49998298828125,7.000013505859375,7.49998298828125L4.333343505859375,7.49998298828125Q4.284097805859375,7.49998298828125,4.235798405859375,7.4903729882812495Q4.187498505859375,7.48076298828125,4.142001505859375,7.46192298828125Q4.096504505859375,7.44307298828125,4.055558505859375,7.41571298828125Q4.014612505859375,7.38835298828125,3.979790505859375,7.35353298828125Q3.944968505859375,7.31871298828125,3.917608505859375,7.27776298828125Q3.890249505859375,7.23682298828125,3.8714035058593748,7.19132298828125Q3.852558505859375,7.14582298828125,3.842950505859375,7.09752298828125Q3.833343505859375,7.04922298828125,3.833343505859375,6.99998298828125ZM4.833343505859375,4.83331298828125L4.833343505859375,6.49998298828125L6.500013505859375,6.49998298828125L6.500013505859375,4.83331298828125L4.833343505859375,4.83331298828125Z" fill="#409EFF" fill-opacity="1"/></g><g><path d="M8.5,6.99998298828125L8.5,4.33331298828125Q8.5,4.28406728828125,8.509607,4.23576788828125Q8.519214999999999,4.18746798828125,8.53806,4.14197098828125Q8.556906,4.09647398828125,8.584265,4.05552798828125Q8.611625,4.01458198828125,8.646447,3.97975998828125Q8.681269,3.94493798828125,8.722215,3.91757798828125Q8.763161,3.89021898828125,8.808658,3.8713729882812498Q8.854155,3.85252798828125,8.9024549,3.84291998828125Q8.9507543,3.83331298828125,9,3.83331298828125L11.66667,3.83331298828125Q11.715910000000001,3.83331298828125,11.76421,3.84291998828125Q11.81251,3.85252798828125,11.85801,3.8713729882812498Q11.90351,3.89021898828125,11.94445,3.91757798828125Q11.9854,3.94493798828125,12.02022,3.97975998828125Q12.05504,4.01458198828125,12.0824,4.05552798828125Q12.10976,4.09647398828125,12.12861,4.14197098828125Q12.14745,4.18746798828125,12.15706,4.23576788828125Q12.16667,4.28406728828125,12.16667,4.33331298828125L12.16667,6.99998298828125Q12.16667,7.04922298828125,12.15706,7.09752298828125Q12.14745,7.14582298828125,12.12861,7.19132298828125Q12.10976,7.23682298828125,12.0824,7.27776298828125Q12.05504,7.31871298828125,12.02022,7.35353298828125Q11.9854,7.38835298828125,11.94445,7.41571298828125Q11.90351,7.44307298828125,11.85801,7.46192298828125Q11.81251,7.48076298828125,11.76421,7.4903729882812495Q11.715910000000001,7.49998298828125,11.66667,7.49998298828125L9,7.49998298828125Q8.9507543,7.49998298828125,8.9024549,7.4903729882812495Q8.854155,7.48076298828125,8.808658,7.46192298828125Q8.763161,7.44307298828125,8.722215,7.41571298828125Q8.681269,7.38835298828125,8.646447,7.35353298828125Q8.611625,7.31871298828125,8.584265,7.27776298828125Q8.556906,7.23682298828125,8.53806,7.19132298828125Q8.519214999999999,7.14582298828125,8.509607,7.09752298828125Q8.5,7.04922298828125,8.5,6.99998298828125ZM9.5,4.83331298828125L9.5,6.49998298828125L11.16667,6.49998298828125L11.16667,4.83331298828125L9.5,4.83331298828125Z" fill="#409EFF" fill-opacity="1"/></g><g><path d="M3.833343505859375,11.66667L3.833343505859375,9Q3.833343505859375,8.9507543,3.842950505859375,8.9024549Q3.852558505859375,8.854155,3.8714035058593748,8.808658Q3.890249505859375,8.763161,3.917608505859375,8.722215Q3.944968505859375,8.681269,3.979790505859375,8.646447Q4.014612505859375,8.611625,4.055558505859375,8.584265Q4.096504505859375,8.556906,4.142001505859375,8.53806Q4.187498505859375,8.519214999999999,4.235798405859375,8.509607Q4.284097805859375,8.5,4.333343505859375,8.5L7.000013505859375,8.5Q7.049253505859375,8.5,7.097553505859375,8.509607Q7.145853505859375,8.519214999999999,7.191353505859375,8.53806Q7.236853505859375,8.556906,7.277793505859375,8.584265Q7.318743505859375,8.611625,7.353563505859375,8.646447Q7.388383505859375,8.681269,7.415743505859375,8.722215Q7.443103505859375,8.763161,7.461953505859375,8.808658Q7.480793505859375,8.854155,7.4904035058593745,8.9024549Q7.500013505859375,8.9507543,7.500013505859375,9L7.500013505859375,11.66667Q7.500013505859375,11.715910000000001,7.4904035058593745,11.76421Q7.480793505859375,11.81251,7.461953505859375,11.85801Q7.443103505859375,11.90351,7.415743505859375,11.94445Q7.388383505859375,11.9854,7.353563505859375,12.02022Q7.318743505859375,12.05504,7.277793505859375,12.0824Q7.236853505859375,12.10976,7.191353505859375,12.12861Q7.145853505859375,12.14745,7.097553505859375,12.15706Q7.049253505859375,12.16667,7.000013505859375,12.16667L4.333343505859375,12.16667Q4.284097805859375,12.16667,4.235798405859375,12.15706Q4.187498505859375,12.14745,4.142001505859375,12.12861Q4.096504505859375,12.10976,4.055558505859375,12.0824Q4.014612505859375,12.05504,3.979790505859375,12.02022Q3.944968505859375,11.9854,3.917608505859375,11.94445Q3.890249505859375,11.90351,3.8714035058593748,11.85801Q3.852558505859375,11.81251,3.842950505859375,11.76421Q3.833343505859375,11.715910000000001,3.833343505859375,11.66667ZM4.833343505859375,9.5L4.833343505859375,11.16667L6.500013505859375,11.16667L6.500013505859375,9.5L4.833343505859375,9.5Z" fill="#409EFF" fill-opacity="1"/></g><g><path d="M8.5,11.66667L8.5,9Q8.5,8.9507543,8.509607,8.9024549Q8.519214999999999,8.854155,8.53806,8.808658Q8.556906,8.763161,8.584265,8.722215Q8.611625,8.681269,8.646447,8.646447Q8.681269,8.611625,8.722215,8.584265Q8.763161,8.556906,8.808658,8.53806Q8.854155,8.519214999999999,8.9024549,8.509607Q8.9507543,8.5,9,8.5L11.66667,8.5Q11.715910000000001,8.5,11.76421,8.509607Q11.81251,8.519214999999999,11.85801,8.53806Q11.90351,8.556906,11.94445,8.584265Q11.9854,8.611625,12.02022,8.646447Q12.05504,8.681269,12.0824,8.722215Q12.10976,8.763161,12.12861,8.808658Q12.14745,8.854155,12.15706,8.9024549Q12.16667,8.9507543,12.16667,9L12.16667,11.66667Q12.16667,11.715910000000001,12.15706,11.76421Q12.14745,11.81251,12.12861,11.85801Q12.10976,11.90351,12.0824,11.94445Q12.05504,11.9854,12.02022,12.02022Q11.9854,12.05504,11.94445,12.0824Q11.90351,12.10976,11.85801,12.12861Q11.81251,12.14745,11.76421,12.15706Q11.715910000000001,12.16667,11.66667,12.16667L9,12.16667Q8.9507543,12.16667,8.9024549,12.15706Q8.854155,12.14745,8.808658,12.12861Q8.763161,12.10976,8.722215,12.0824Q8.681269,12.05504,8.646447,12.02022Q8.611625,11.9854,8.584265,11.94445Q8.556906,11.90351,8.53806,11.85801Q8.519214999999999,11.81251,8.509607,11.76421Q8.5,11.715910000000001,8.5,11.66667ZM9.5,9.5L9.5,11.16667L11.16667,11.16667L11.16667,9.5L9.5,9.5Z" fill="#409EFF" fill-opacity="1"/></g></g></svg>