<svg xmlns="http://www.w3.org/2000/svg" xmlns:xlink="http://www.w3.org/1999/xlink" fill="none" version="1.1" width="16" height="16" viewBox="0 0 16 16"><defs><clipPath id="master_svg0_3_99755"><rect x="0" y="0" width="16" height="16" rx="0"/></clipPath></defs><g clip-path="url(#master_svg0_3_99755)"><g><path d="M0.833343505859375,13.33333L0.833343505859375,4.666667Q0.833343505859375,4.18341,1.175054505859375,3.841703Q1.516760505859375,3.5,2.000010505859375,3.5L14.000043505859376,3.5Q14.483243505859376,3.5,14.824943505859375,3.841705Q15.166643505859374,4.18341,15.166643505859374,4.666667L15.166643505859374,13.33333Q15.166643505859374,13.81659,14.824943505859375,14.1583Q14.483243505859376,14.5,14.000043505859376,14.5L2.000010505859375,14.5Q1.516760505859375,14.5,1.175054505859375,14.1583Q0.833343505859375,13.81659,0.833343505859375,13.33333L0.833343505859375,13.33333ZM1.833343505859375,13.33333Q1.833343505859375,13.5,2.000010505859375,13.5L14.000043505859376,13.5Q14.166643505859374,13.5,14.166643505859374,13.33333L14.166643505859374,4.666667Q14.166643505859374,4.5,14.000043505859376,4.5L2.000010505859375,4.5Q1.833343505859375,4.5,1.833343505859375,4.666667L1.833343505859375,13.33333L1.833343505859375,13.33333Z" fill="#409EFF" fill-opacity="1"/></g><g><path d="M10.020233505859375,6.686896505859375L8.353563505859375,8.353563505859375Q8.318743505859375,8.388383505859375,8.277793505859375,8.415743505859375Q8.236853505859376,8.443103505859375,8.191353505859375,8.461953505859375Q8.145853505859375,8.480793505859374,8.097553505859375,8.490403505859375Q8.049253505859376,8.500013505859375,8.000013505859375,8.500013505859375Q7.950763505859375,8.500013505859375,7.902463505859375,8.490403505859375Q7.8541635058593755,8.480793505859374,7.808663505859375,8.461953505859375Q7.763173505859375,8.443103505859375,7.722223505859375,8.415743505859375Q7.6812835058593745,8.388383505859375,7.646453505859375,8.353563505859375L5.979790505859375,6.686896505859375Q5.944968505859375,6.652074505859375,5.917608505859375,6.611128505859375Q5.890249505859375,6.570182505859375,5.871403505859375,6.524685505859375Q5.852558505859375,6.479188505859375,5.842950505859375,6.430888605859375Q5.833343505859375,6.382589205859375,5.833343505859375,6.333343505859375Q5.833343505859375,6.284097805859375,5.842950505859375,6.235798405859375Q5.852558505859375,6.187498505859375,5.871403505859375,6.142001505859375Q5.890249505859375,6.096504505859375,5.917608505859375,6.055558505859375Q5.944968505859375,6.014612505859375,5.979790505859375,5.979790505859375Q6.014612505859375,5.944968505859375,6.055558505859375,5.917608505859375Q6.096504505859375,5.890249505859375,6.142001505859375,5.871403505859375Q6.187498505859375,5.852558505859375,6.235798405859375,5.842950505859375Q6.284097805859375,5.833343505859375,6.333343505859375,5.833343505859375Q6.382589205859375,5.833343505859375,6.430888605859375,5.842950505859375Q6.479188505859375,5.852558505859375,6.524685505859375,5.871403505859375Q6.570182505859375,5.890249505859375,6.611128505859375,5.917608505859375Q6.652074505859375,5.944968505859375,6.686896505859375,5.979790505859375L8.353563505859375,7.646453505859375L8.000013505859375,8.000013505859375L7.646453505859375,7.646453505859375L9.313123505859375,5.979790505859375Q9.347943505859375,5.944968505859375,9.388893505859375,5.917608505859375Q9.429833505859374,5.890249505859375,9.475333505859375,5.871403505859375Q9.520833505859375,5.852558505859375,9.569133505859375,5.842950505859375Q9.617433505859374,5.833343505859375,9.666673505859375,5.833343505859375Q9.715923505859376,5.833343505859375,9.764223505859375,5.842950505859375Q9.812523505859374,5.852558505859375,9.858013505859375,5.871403505859375Q9.903513505859376,5.890249505859375,9.944463505859375,5.917608505859375Q9.985403505859376,5.944968505859375,10.020233505859375,5.979790505859375Q10.055053505859375,6.014612505859375,10.082413505859375,6.055558505859375Q10.109773505859375,6.096504505859375,10.128613505859375,6.142001505859375Q10.147463505859374,6.187498505859375,10.157073505859374,6.235798405859375Q10.166673505859375,6.284097805859375,10.166673505859375,6.333343505859375Q10.166673505859375,6.382589205859375,10.157073505859374,6.430888605859375Q10.147463505859374,6.479188505859375,10.128613505859375,6.524685505859375Q10.109773505859375,6.570182505859375,10.082413505859375,6.611128505859375Q10.055053505859375,6.652074505859375,10.020233505859375,6.686896505859375ZM10.166673505859375,6.333343505859375Q10.166673505859375,6.382589205859375,10.157073505859374,6.430888605859375Q10.147463505859374,6.479188505859375,10.128613505859375,6.524685505859375Q10.109773505859375,6.570182505859375,10.082413505859375,6.611128505859375Q10.055053505859375,6.652074505859375,10.020233505859375,6.686896505859375Q9.985403505859376,6.721718505859375,9.944463505859375,6.749078505859375Q9.903513505859376,6.776437505859375,9.858013505859375,6.795283505859375Q9.812523505859374,6.814128505859375,9.764223505859375,6.823736505859375Q9.715923505859376,6.833343505859375,9.666673505859375,6.833343505859375Q9.617433505859374,6.833343505859375,9.569133505859375,6.823736505859375Q9.520833505859375,6.814128505859375,9.475333505859375,6.795283505859375Q9.429833505859374,6.776437505859375,9.388893505859375,6.749078505859375Q9.347943505859375,6.721718505859375,9.313123505859375,6.686896505859375Q9.278303505859375,6.652074505859375,9.250943505859375,6.611128505859375Q9.223583505859375,6.570182505859375,9.204733505859375,6.524685505859375Q9.185893505859376,6.479188505859375,9.176283505859375,6.430888605859375Q9.166673505859375,6.382589205859375,9.166673505859375,6.333343505859375Q9.166673505859375,6.284097805859375,9.176283505859375,6.235798405859375Q9.185893505859376,6.187498505859375,9.204733505859375,6.142001505859375Q9.223583505859375,6.096504505859375,9.250943505859375,6.055558505859375Q9.278303505859375,6.014612505859375,9.313123505859375,5.979790505859375Q9.347943505859375,5.944968505859375,9.388893505859375,5.917608505859375Q9.429833505859374,5.890249505859375,9.475333505859375,5.871403505859375Q9.520833505859375,5.852558505859375,9.569133505859375,5.842950505859375Q9.617433505859374,5.833343505859375,9.666673505859375,5.833343505859375Q9.715923505859376,5.833343505859375,9.764223505859375,5.842950505859375Q9.812523505859374,5.852558505859375,9.858013505859375,5.871403505859375Q9.903513505859376,5.890249505859375,9.944463505859375,5.917608505859375Q9.985403505859376,5.944968505859375,10.020233505859375,5.979790505859375Q10.055053505859375,6.014612505859375,10.082413505859375,6.055558505859375Q10.109773505859375,6.096504505859375,10.128613505859375,6.142001505859375Q10.147463505859374,6.187498505859375,10.157073505859374,6.235798405859375Q10.166673505859375,6.284097805859375,10.166673505859375,6.333343505859375ZM6.833343505859375,6.333343505859375Q6.833343505859375,6.382589205859375,6.823736505859375,6.430888605859375Q6.814128505859375,6.479188505859375,6.795283505859375,6.524685505859375Q6.776437505859375,6.570182505859375,6.749078505859375,6.611128505859375Q6.721718505859375,6.652074505859375,6.686896505859375,6.686896505859375Q6.652074505859375,6.721718505859375,6.611128505859375,6.749078505859375Q6.570182505859375,6.776437505859375,6.524685505859375,6.795283505859375Q6.479188505859375,6.814128505859375,6.430888605859375,6.823736505859375Q6.382589205859375,6.833343505859375,6.333343505859375,6.833343505859375Q6.284097805859375,6.833343505859375,6.235798405859375,6.823736505859375Q6.187498505859375,6.814128505859375,6.142001505859375,6.795283505859375Q6.096504505859375,6.776437505859375,6.055558505859375,6.749078505859375Q6.014612505859375,6.721718505859375,5.979790505859375,6.686896505859375Q5.944968505859375,6.652074505859375,5.917608505859375,6.611128505859375Q5.890249505859375,6.570182505859375,5.871403505859375,6.524685505859375Q5.852558505859375,6.479188505859375,5.842950505859375,6.430888605859375Q5.833343505859375,6.382589205859375,5.833343505859375,6.333343505859375Q5.833343505859375,6.284097805859375,5.842950505859375,6.235798405859375Q5.852558505859375,6.187498505859375,5.871403505859375,6.142001505859375Q5.890249505859375,6.096504505859375,5.917608505859375,6.055558505859375Q5.944968505859375,6.014612505859375,5.979790505859375,5.979790505859375Q6.014612505859375,5.944968505859375,6.055558505859375,5.917608505859375Q6.096504505859375,5.890249505859375,6.142001505859375,5.871403505859375Q6.187498505859375,5.852558505859375,6.235798405859375,5.842950505859375Q6.284097805859375,5.833343505859375,6.333343505859375,5.833343505859375Q6.382589205859375,5.833343505859375,6.430888605859375,5.842950505859375Q6.479188505859375,5.852558505859375,6.524685505859375,5.871403505859375Q6.570182505859375,5.890249505859375,6.611128505859375,5.917608505859375Q6.652074505859375,5.944968505859375,6.686896505859375,5.979790505859375Q6.721718505859375,6.014612505859375,6.749078505859375,6.055558505859375Q6.776437505859375,6.096504505859375,6.795283505859375,6.142001505859375Q6.814128505859375,6.187498505859375,6.823736505859375,6.235798405859375Q6.833343505859375,6.284097805859375,6.833343505859375,6.333343505859375Z" fill="#409EFF" fill-opacity="1"/></g><g><path d="M10,8.833343505859375L6,8.833343505859375Q5.9507543,8.833343505859375,5.9024549,8.823736505859374Q5.854155,8.814128505859376,5.808658,8.795283505859375Q5.763161,8.776437505859375,5.722215,8.749078505859375Q5.681269,8.721718505859375,5.646447,8.686896505859375Q5.611625,8.652074505859375,5.584265,8.611128505859375Q5.556906,8.570182505859375,5.53806,8.524685505859376Q5.519215,8.479188505859375,5.509607,8.430888605859375Q5.5,8.382589205859375,5.5,8.333343505859375Q5.5,8.284097805859375,5.509607,8.235798405859375Q5.519215,8.187498505859375,5.53806,8.142001505859374Q5.556906,8.096504505859375,5.584265,8.055558505859375Q5.611625,8.014612505859375,5.646447,7.979790505859375Q5.681269,7.944968505859375,5.722215,7.917608505859375Q5.763161,7.890249505859375,5.808658,7.871403505859375Q5.854155,7.852558505859375,5.9024549,7.842950505859375Q5.9507543,7.833343505859375,6,7.833343505859375L10,7.833343505859375Q10.04925,7.833343505859375,10.09755,7.842950505859375Q10.14584,7.852558505859375,10.19134,7.871403505859375Q10.23684,7.890249505859375,10.27778,7.917608505859375Q10.31873,7.944968505859375,10.35355,7.979790505859375Q10.38837,8.014612505859375,10.41573,8.055558505859375Q10.44309,8.096504505859375,10.46194,8.142001505859374Q10.48078,8.187498505859375,10.49039,8.235798405859375Q10.5,8.284097805859375,10.5,8.333343505859375Q10.5,8.382589205859375,10.49039,8.430888605859375Q10.48078,8.479188505859375,10.46194,8.524685505859376Q10.44309,8.570182505859375,10.41573,8.611128505859375Q10.38837,8.652074505859375,10.35355,8.686896505859375Q10.31873,8.721718505859375,10.27778,8.749078505859375Q10.23684,8.776437505859375,10.19134,8.795283505859375Q10.14584,8.814128505859376,10.09755,8.823736505859374Q10.04925,8.833343505859375,10,8.833343505859375ZM10.5,8.333343505859375Q10.5,8.382589205859375,10.49039,8.430888605859375Q10.48078,8.479188505859375,10.46194,8.524685505859376Q10.44309,8.570182505859375,10.41573,8.611128505859375Q10.38837,8.652074505859375,10.35355,8.686896505859375Q10.31873,8.721718505859375,10.27778,8.749078505859375Q10.23684,8.776437505859375,10.19134,8.795283505859375Q10.14584,8.814128505859376,10.09755,8.823736505859374Q10.04925,8.833343505859375,10,8.833343505859375Q9.95075,8.833343505859375,9.90245,8.823736505859374Q9.85415,8.814128505859376,9.80866,8.795283505859375Q9.76316,8.776437505859375,9.72221,8.749078505859375Q9.68127,8.721718505859375,9.64645,8.686896505859375Q9.61162,8.652074505859375,9.58426,8.611128505859375Q9.55691,8.570182505859375,9.53806,8.524685505859376Q9.519210000000001,8.479188505859375,9.50961,8.430888605859375Q9.5,8.382589205859375,9.5,8.333343505859375Q9.5,8.284097805859375,9.50961,8.235798405859375Q9.519210000000001,8.187498505859375,9.53806,8.142001505859374Q9.55691,8.096504505859375,9.58426,8.055558505859375Q9.61162,8.014612505859375,9.64645,7.979790505859375Q9.68127,7.944968505859375,9.72221,7.917608505859375Q9.76316,7.890249505859375,9.80866,7.871403505859375Q9.85415,7.852558505859375,9.90245,7.842950505859375Q9.95075,7.833343505859375,10,7.833343505859375Q10.04925,7.833343505859375,10.09755,7.842950505859375Q10.14584,7.852558505859375,10.19134,7.871403505859375Q10.23684,7.890249505859375,10.27778,7.917608505859375Q10.31873,7.944968505859375,10.35355,7.979790505859375Q10.38837,8.014612505859375,10.41573,8.055558505859375Q10.44309,8.096504505859375,10.46194,8.142001505859374Q10.48078,8.187498505859375,10.49039,8.235798405859375Q10.5,8.284097805859375,10.5,8.333343505859375ZM6.5,8.333343505859375Q6.5,8.382589205859375,6.490393,8.430888605859375Q6.480785,8.479188505859375,6.46194,8.524685505859376Q6.443094,8.570182505859375,6.415735,8.611128505859375Q6.388375,8.652074505859375,6.353553,8.686896505859375Q6.318731,8.721718505859375,6.277785,8.749078505859375Q6.236839,8.776437505859375,6.191342,8.795283505859375Q6.145845,8.814128505859376,6.0975451,8.823736505859374Q6.0492457,8.833343505859375,6,8.833343505859375Q5.9507543,8.833343505859375,5.9024549,8.823736505859374Q5.854155,8.814128505859376,5.808658,8.795283505859375Q5.763161,8.776437505859375,5.722215,8.749078505859375Q5.681269,8.721718505859375,5.646447,8.686896505859375Q5.611625,8.652074505859375,5.584265,8.611128505859375Q5.556906,8.570182505859375,5.53806,8.524685505859376Q5.519215,8.479188505859375,5.509607,8.430888605859375Q5.5,8.382589205859375,5.5,8.333343505859375Q5.5,8.284097805859375,5.509607,8.235798405859375Q5.519215,8.187498505859375,5.53806,8.142001505859374Q5.556906,8.096504505859375,5.584265,8.055558505859375Q5.611625,8.014612505859375,5.646447,7.979790505859375Q5.681269,7.944968505859375,5.722215,7.917608505859375Q5.763161,7.890249505859375,5.808658,7.871403505859375Q5.854155,7.852558505859375,5.9024549,7.842950505859375Q5.9507543,7.833343505859375,6,7.833343505859375Q6.0492457,7.833343505859375,6.0975451,7.842950505859375Q6.145845,7.852558505859375,6.191342,7.871403505859375Q6.236839,7.890249505859375,6.277785,7.917608505859375Q6.318731,7.944968505859375,6.353553,7.979790505859375Q6.388375,8.014612505859375,6.415735,8.055558505859375Q6.443094,8.096504505859375,6.46194,8.142001505859374Q6.480785,8.187498505859375,6.490393,8.235798405859375Q6.5,8.284097805859375,6.5,8.333343505859375Z" fill="#409EFF" fill-opacity="1"/></g><g><path d="M10,10.833343505859375L6,10.833343505859375Q5.9507543,10.833343505859375,5.9024549,10.823736505859374Q5.854155,10.814128505859376,5.808658,10.795283505859375Q5.763161,10.776437505859375,5.722215,10.749078505859375Q5.681269,10.721718505859375,5.646447,10.686896505859375Q5.611625,10.652074505859375,5.584265,10.611128505859375Q5.556906,10.570182505859375,5.53806,10.524685505859376Q5.519215,10.479188505859375,5.509607,10.430888605859375Q5.5,10.382589205859375,5.5,10.333343505859375Q5.5,10.284097805859375,5.509607,10.235798405859375Q5.519215,10.187498505859375,5.53806,10.142001505859374Q5.556906,10.096504505859375,5.584265,10.055558505859375Q5.611625,10.014612505859375,5.646447,9.979790505859375Q5.681269,9.944968505859375,5.722215,9.917608505859375Q5.763161,9.890249505859375,5.808658,9.871403505859375Q5.854155,9.852558505859374,5.9024549,9.842950505859376Q5.9507543,9.833343505859375,6,9.833343505859375L10,9.833343505859375Q10.04925,9.833343505859375,10.09755,9.842950505859376Q10.14584,9.852558505859374,10.19134,9.871403505859375Q10.23684,9.890249505859375,10.27778,9.917608505859375Q10.31873,9.944968505859375,10.35355,9.979790505859375Q10.38837,10.014612505859375,10.41573,10.055558505859375Q10.44309,10.096504505859375,10.46194,10.142001505859374Q10.48078,10.187498505859375,10.49039,10.235798405859375Q10.5,10.284097805859375,10.5,10.333343505859375Q10.5,10.382589205859375,10.49039,10.430888605859375Q10.48078,10.479188505859375,10.46194,10.524685505859376Q10.44309,10.570182505859375,10.41573,10.611128505859375Q10.38837,10.652074505859375,10.35355,10.686896505859375Q10.31873,10.721718505859375,10.27778,10.749078505859375Q10.23684,10.776437505859375,10.19134,10.795283505859375Q10.14584,10.814128505859376,10.09755,10.823736505859374Q10.04925,10.833343505859375,10,10.833343505859375ZM10.5,10.333343505859375Q10.5,10.382589205859375,10.49039,10.430888605859375Q10.48078,10.479188505859375,10.46194,10.524685505859376Q10.44309,10.570182505859375,10.41573,10.611128505859375Q10.38837,10.652074505859375,10.35355,10.686896505859375Q10.31873,10.721718505859375,10.27778,10.749078505859375Q10.23684,10.776437505859375,10.19134,10.795283505859375Q10.14584,10.814128505859376,10.09755,10.823736505859374Q10.04925,10.833343505859375,10,10.833343505859375Q9.95075,10.833343505859375,9.90245,10.823736505859374Q9.85415,10.814128505859376,9.80866,10.795283505859375Q9.76316,10.776437505859375,9.72221,10.749078505859375Q9.68127,10.721718505859375,9.64645,10.686896505859375Q9.61162,10.652074505859375,9.58426,10.611128505859375Q9.55691,10.570182505859375,9.53806,10.524685505859376Q9.519210000000001,10.479188505859375,9.50961,10.430888605859375Q9.5,10.382589205859375,9.5,10.333343505859375Q9.5,10.284097805859375,9.50961,10.235798405859375Q9.519210000000001,10.187498505859375,9.53806,10.142001505859374Q9.55691,10.096504505859375,9.58426,10.055558505859375Q9.61162,10.014612505859375,9.64645,9.979790505859375Q9.68127,9.944968505859375,9.72221,9.917608505859375Q9.76316,9.890249505859375,9.80866,9.871403505859375Q9.85415,9.852558505859374,9.90245,9.842950505859376Q9.95075,9.833343505859375,10,9.833343505859375Q10.04925,9.833343505859375,10.09755,9.842950505859376Q10.14584,9.852558505859374,10.19134,9.871403505859375Q10.23684,9.890249505859375,10.27778,9.917608505859375Q10.31873,9.944968505859375,10.35355,9.979790505859375Q10.38837,10.014612505859375,10.41573,10.055558505859375Q10.44309,10.096504505859375,10.46194,10.142001505859374Q10.48078,10.187498505859375,10.49039,10.235798405859375Q10.5,10.284097805859375,10.5,10.333343505859375ZM6.5,10.333343505859375Q6.5,10.382589205859375,6.490393,10.430888605859375Q6.480785,10.479188505859375,6.46194,10.524685505859376Q6.443094,10.570182505859375,6.415735,10.611128505859375Q6.388375,10.652074505859375,6.353553,10.686896505859375Q6.318731,10.721718505859375,6.277785,10.749078505859375Q6.236839,10.776437505859375,6.191342,10.795283505859375Q6.145845,10.814128505859376,6.0975451,10.823736505859374Q6.0492457,10.833343505859375,6,10.833343505859375Q5.9507543,10.833343505859375,5.9024549,10.823736505859374Q5.854155,10.814128505859376,5.808658,10.795283505859375Q5.763161,10.776437505859375,5.722215,10.749078505859375Q5.681269,10.721718505859375,5.646447,10.686896505859375Q5.611625,10.652074505859375,5.584265,10.611128505859375Q5.556906,10.570182505859375,5.53806,10.524685505859376Q5.519215,10.479188505859375,5.509607,10.430888605859375Q5.5,10.382589205859375,5.5,10.333343505859375Q5.5,10.284097805859375,5.509607,10.235798405859375Q5.519215,10.187498505859375,5.53806,10.142001505859374Q5.556906,10.096504505859375,5.584265,10.055558505859375Q5.611625,10.014612505859375,5.646447,9.979790505859375Q5.681269,9.944968505859375,5.722215,9.917608505859375Q5.763161,9.890249505859375,5.808658,9.871403505859375Q5.854155,9.852558505859374,5.9024549,9.842950505859376Q5.9507543,9.833343505859375,6,9.833343505859375Q6.0492457,9.833343505859375,6.0975451,9.842950505859376Q6.145845,9.852558505859374,6.191342,9.871403505859375Q6.236839,9.890249505859375,6.277785,9.917608505859375Q6.318731,9.944968505859375,6.353553,9.979790505859375Q6.388375,10.014612505859375,6.415735,10.055558505859375Q6.443094,10.096504505859375,6.46194,10.142001505859374Q6.480785,10.187498505859375,6.490393,10.235798405859375Q6.5,10.284097805859375,6.5,10.333343505859375Z" fill="#409EFF" fill-opacity="1"/></g><g><path d="M7.5,11.666673505859375L7.5,8.333343505859375Q7.5,8.284097805859375,7.509607,8.235798405859375Q7.519215,8.187498505859375,7.53806,8.142001505859374Q7.556906,8.096504505859375,7.584265,8.055558505859375Q7.611625,8.014612505859375,7.646447,7.979790505859375Q7.681269,7.944968505859375,7.722215,7.917608505859375Q7.763161,7.890249505859375,7.808658,7.871403505859375Q7.854155,7.852558505859375,7.9024549,7.842950505859375Q7.9507543,7.833343505859375,8,7.833343505859375Q8.0492457,7.833343505859375,8.0975451,7.842950505859375Q8.145845,7.852558505859375,8.191342,7.871403505859375Q8.236839,7.890249505859375,8.277785,7.917608505859375Q8.318731,7.944968505859375,8.353553,7.979790505859375Q8.388375,8.014612505859375,8.415735,8.055558505859375Q8.443094,8.096504505859375,8.46194,8.142001505859374Q8.480785000000001,8.187498505859375,8.490393,8.235798405859375Q8.5,8.284097805859375,8.5,8.333343505859375L8.5,11.666673505859375Q8.5,11.715923505859376,8.490393,11.764223505859375Q8.480785000000001,11.812523505859374,8.46194,11.858013505859375Q8.443094,11.903513505859376,8.415735,11.944463505859375Q8.388375,11.985403505859376,8.353553,12.020233505859375Q8.318731,12.055053505859375,8.277785,12.082413505859375Q8.236839,12.109773505859375,8.191342,12.128613505859375Q8.145845,12.147463505859374,8.0975451,12.157073505859374Q8.0492457,12.166673505859375,8,12.166673505859375Q7.9507543,12.166673505859375,7.9024549,12.157073505859374Q7.854155,12.147463505859374,7.808658,12.128613505859375Q7.763161,12.109773505859375,7.722215,12.082413505859375Q7.681269,12.055053505859375,7.646447,12.020233505859375Q7.611625,11.985403505859376,7.584265,11.944463505859375Q7.556906,11.903513505859376,7.53806,11.858013505859375Q7.519215,11.812523505859374,7.509607,11.764223505859375Q7.5,11.715923505859376,7.5,11.666673505859375ZM8.5,11.666673505859375Q8.5,11.715923505859376,8.490393,11.764223505859375Q8.480785000000001,11.812523505859374,8.46194,11.858013505859375Q8.443094,11.903513505859376,8.415735,11.944463505859375Q8.388375,11.985403505859376,8.353553,12.020233505859375Q8.318731,12.055053505859375,8.277785,12.082413505859375Q8.236839,12.109773505859375,8.191342,12.128613505859375Q8.145845,12.147463505859374,8.0975451,12.157073505859374Q8.0492457,12.166673505859375,8,12.166673505859375Q7.9507543,12.166673505859375,7.9024549,12.157073505859374Q7.854155,12.147463505859374,7.808658,12.128613505859375Q7.763161,12.109773505859375,7.722215,12.082413505859375Q7.681269,12.055053505859375,7.646447,12.020233505859375Q7.611625,11.985403505859376,7.584265,11.944463505859375Q7.556906,11.903513505859376,7.53806,11.858013505859375Q7.519215,11.812523505859374,7.509607,11.764223505859375Q7.5,11.715923505859376,7.5,11.666673505859375Q7.5,11.617433505859374,7.509607,11.569133505859375Q7.519215,11.520833505859375,7.53806,11.475333505859375Q7.556906,11.429833505859374,7.584265,11.388893505859375Q7.611625,11.347943505859375,7.646447,11.313123505859375Q7.681269,11.278303505859375,7.722215,11.250943505859375Q7.763161,11.223583505859375,7.808658,11.204733505859375Q7.854155,11.185893505859376,7.9024549,11.176283505859375Q7.9507543,11.166673505859375,8,11.166673505859375Q8.0492457,11.166673505859375,8.0975451,11.176283505859375Q8.145845,11.185893505859376,8.191342,11.204733505859375Q8.236839,11.223583505859375,8.277785,11.250943505859375Q8.318731,11.278303505859375,8.353553,11.313123505859375Q8.388375,11.347943505859375,8.415735,11.388893505859375Q8.443094,11.429833505859374,8.46194,11.475333505859375Q8.480785000000001,11.520833505859375,8.490393,11.569133505859375Q8.5,11.617433505859374,8.5,11.666673505859375ZM8.5,8.333343505859375Q8.5,8.382589205859375,8.490393,8.430888605859375Q8.480785000000001,8.479188505859375,8.46194,8.524685505859376Q8.443094,8.570182505859375,8.415735,8.611128505859375Q8.388375,8.652074505859375,8.353553,8.686896505859375Q8.318731,8.721718505859375,8.277785,8.749078505859375Q8.236839,8.776437505859375,8.191342,8.795283505859375Q8.145845,8.814128505859376,8.0975451,8.823736505859374Q8.0492457,8.833343505859375,8,8.833343505859375Q7.9507543,8.833343505859375,7.9024549,8.823736505859374Q7.854155,8.814128505859376,7.808658,8.795283505859375Q7.763161,8.776437505859375,7.722215,8.749078505859375Q7.681269,8.721718505859375,7.646447,8.686896505859375Q7.611625,8.652074505859375,7.584265,8.611128505859375Q7.556906,8.570182505859375,7.53806,8.524685505859376Q7.519215,8.479188505859375,7.509607,8.430888605859375Q7.5,8.382589205859375,7.5,8.333343505859375Q7.5,8.284097805859375,7.509607,8.235798405859375Q7.519215,8.187498505859375,7.53806,8.142001505859374Q7.556906,8.096504505859375,7.584265,8.055558505859375Q7.611625,8.014612505859375,7.646447,7.979790505859375Q7.681269,7.944968505859375,7.722215,7.917608505859375Q7.763161,7.890249505859375,7.808658,7.871403505859375Q7.854155,7.852558505859375,7.9024549,7.842950505859375Q7.9507543,7.833343505859375,8,7.833343505859375Q8.0492457,7.833343505859375,8.0975451,7.842950505859375Q8.145845,7.852558505859375,8.191342,7.871403505859375Q8.236839,7.890249505859375,8.277785,7.917608505859375Q8.318731,7.944968505859375,8.353553,7.979790505859375Q8.388375,8.014612505859375,8.415735,8.055558505859375Q8.443094,8.096504505859375,8.46194,8.142001505859374Q8.480785000000001,8.187498505859375,8.490393,8.235798405859375Q8.5,8.284097805859375,8.5,8.333343505859375Z" fill="#409EFF" fill-opacity="1"/></g><g><path d="M13.333356494140626,2.5L2.666656494140625,2.5Q2.617410794140625,2.5,2.569111394140625,2.490393Q2.520811494140625,2.480785,2.475314494140625,2.4619400000000002Q2.429817494140625,2.443094,2.388871494140625,2.415735Q2.347925494140625,2.388375,2.313103494140625,2.353553Q2.278281494140625,2.318731,2.250921494140625,2.277785Q2.223562494140625,2.236839,2.2047164941406248,2.191342Q2.185871494140625,2.145845,2.176263494140625,2.0975451Q2.166656494140625,2.0492457,2.166656494140625,2Q2.166656494140625,1.9507543,2.176263494140625,1.9024549Q2.185871494140625,1.854155,2.2047164941406248,1.8086579999999999Q2.223562494140625,1.763161,2.250921494140625,1.722215Q2.278281494140625,1.681269,2.313103494140625,1.646447Q2.347925494140625,1.611625,2.388871494140625,1.584265Q2.429817494140625,1.5569060000000001,2.475314494140625,1.53806Q2.520811494140625,1.519215,2.569111394140625,1.509607Q2.617410794140625,1.5,2.666656494140625,1.5L13.333356494140626,1.5Q13.382556494140625,1.5,13.430856494140626,1.509607Q13.479156494140625,1.519215,13.524656494140626,1.53806Q13.570156494140624,1.5569060000000001,13.611156494140625,1.584265Q13.652056494140625,1.611625,13.686856494140626,1.646447Q13.721656494140625,1.681269,13.749056494140625,1.722215Q13.776456494140625,1.763161,13.795256494140625,1.8086579999999999Q13.814156494140626,1.854155,13.823756494140625,1.9024549Q13.833356494140626,1.9507543,13.833356494140626,2Q13.833356494140626,2.0492457,13.823756494140625,2.0975451Q13.814156494140626,2.145845,13.795256494140625,2.191342Q13.776456494140625,2.236839,13.749056494140625,2.277785Q13.721656494140625,2.318731,13.686856494140626,2.353553Q13.652056494140625,2.388375,13.611156494140625,2.415735Q13.570156494140624,2.443094,13.524656494140626,2.4619400000000002Q13.479156494140625,2.480785,13.430856494140626,2.490393Q13.382556494140625,2.5,13.333356494140626,2.5ZM13.833356494140626,2Q13.833356494140626,2.0492457,13.823756494140625,2.0975451Q13.814156494140626,2.145845,13.795256494140625,2.191342Q13.776456494140625,2.236839,13.749056494140625,2.277785Q13.721656494140625,2.318731,13.686856494140626,2.353553Q13.652056494140625,2.388375,13.611156494140625,2.415735Q13.570156494140624,2.443094,13.524656494140626,2.4619400000000002Q13.479156494140625,2.480785,13.430856494140626,2.490393Q13.382556494140625,2.5,13.333356494140626,2.5Q13.284056494140625,2.5,13.235756494140626,2.490393Q13.187456494140624,2.480785,13.141956494140626,2.4619400000000002Q13.096456494140625,2.443094,13.055556494140625,2.415735Q13.014556494140624,2.388375,12.979756494140625,2.353553Q12.944956494140625,2.318731,12.917556494140625,2.277785Q12.890256494140624,2.236839,12.871356494140626,2.191342Q12.852556494140625,2.145845,12.842956494140624,2.0975451Q12.833356494140626,2.0492457,12.833356494140626,2Q12.833356494140626,1.9507543,12.842956494140624,1.9024549Q12.852556494140625,1.854155,12.871356494140626,1.8086579999999999Q12.890256494140624,1.763161,12.917556494140625,1.722215Q12.944956494140625,1.681269,12.979756494140625,1.646447Q13.014556494140624,1.611625,13.055556494140625,1.584265Q13.096456494140625,1.5569060000000001,13.141956494140626,1.53806Q13.187456494140624,1.519215,13.235756494140626,1.509607Q13.284056494140625,1.5,13.333356494140626,1.5Q13.382556494140625,1.5,13.430856494140626,1.509607Q13.479156494140625,1.519215,13.524656494140626,1.53806Q13.570156494140624,1.5569060000000001,13.611156494140625,1.584265Q13.652056494140625,1.611625,13.686856494140626,1.646447Q13.721656494140625,1.681269,13.749056494140625,1.722215Q13.776456494140625,1.763161,13.795256494140625,1.8086579999999999Q13.814156494140626,1.854155,13.823756494140625,1.9024549Q13.833356494140626,1.9507543,13.833356494140626,2ZM3.166656494140625,2Q3.166656494140625,2.0492457,3.157049494140625,2.0975451Q3.147441494140625,2.145845,3.1285964941406252,2.191342Q3.109750494140625,2.236839,3.082391494140625,2.277785Q3.055031494140625,2.318731,3.020209494140625,2.353553Q2.985387494140625,2.388375,2.944441494140625,2.415735Q2.903495494140625,2.443094,2.857998494140625,2.4619400000000002Q2.812501494140625,2.480785,2.764201594140625,2.490393Q2.715902194140625,2.5,2.666656494140625,2.5Q2.617410794140625,2.5,2.569111394140625,2.490393Q2.520811494140625,2.480785,2.475314494140625,2.4619400000000002Q2.429817494140625,2.443094,2.388871494140625,2.415735Q2.347925494140625,2.388375,2.313103494140625,2.353553Q2.278281494140625,2.318731,2.250921494140625,2.277785Q2.223562494140625,2.236839,2.2047164941406248,2.191342Q2.185871494140625,2.145845,2.176263494140625,2.0975451Q2.166656494140625,2.0492457,2.166656494140625,2Q2.166656494140625,1.9507543,2.176263494140625,1.9024549Q2.185871494140625,1.854155,2.2047164941406248,1.8086579999999999Q2.223562494140625,1.763161,2.250921494140625,1.722215Q2.278281494140625,1.681269,2.313103494140625,1.646447Q2.347925494140625,1.611625,2.388871494140625,1.584265Q2.429817494140625,1.5569060000000001,2.475314494140625,1.53806Q2.520811494140625,1.519215,2.569111394140625,1.509607Q2.617410794140625,1.5,2.666656494140625,1.5Q2.715902194140625,1.5,2.764201594140625,1.509607Q2.812501494140625,1.519215,2.857998494140625,1.53806Q2.903495494140625,1.5569060000000001,2.944441494140625,1.584265Q2.985387494140625,1.611625,3.020209494140625,1.646447Q3.055031494140625,1.681269,3.082391494140625,1.722215Q3.109750494140625,1.763161,3.1285964941406252,1.8086579999999999Q3.147441494140625,1.854155,3.157049494140625,1.9024549Q3.166656494140625,1.9507543,3.166656494140625,2Z" fill="#409EFF" fill-opacity="1"/></g></g></svg>