<svg xmlns="http://www.w3.org/2000/svg" xmlns:xlink="http://www.w3.org/1999/xlink" fill="none" version="1.1" width="16" height="16" viewBox="0 0 16 16"><defs><clipPath id="master_svg0_2347_15129"><rect x="0" y="0" width="16" height="16" rx="0"/></clipPath></defs><g style="mix-blend-mode:passthrough" clip-path="url(#master_svg0_2347_15129)"><g style="mix-blend-mode:passthrough"><path d="M3.5,12C3.5,12,3.5,13.5,3.5,13.5C3.5103299999999997,13.7813,3.60933,14.0157,3.7969999999999997,14.203C3.98467,14.3903,4.219,14.4893,4.5,14.5C4.5,14.5,11.5,14.5,11.5,14.5C11.78133,14.4897,12.01567,14.3907,12.203,14.203C12.39033,14.0153,12.48933,13.781,12.5,13.5C12.5,13.5,12.5,12,12.5,12C12.5,12,3.5,12,3.5,12C3.5,12,3.5,12,3.5,12ZM3.5,11C3.5,11,12.5,11,12.5,11C12.5,11,12.5,2.5,12.5,2.5C12.48967,2.21867,12.39067,1.98433,12.203,1.797C12.01533,1.60967,11.781,1.51067,11.5,1.5C11.5,1.5,4.5,1.5,4.5,1.5C4.2186699999999995,1.51033,3.98433,1.60933,3.7969999999999997,1.797C3.60967,1.98467,3.51067,2.2190000000000003,3.5,2.5C3.5,2.5,3.5,11,3.5,11C3.5,11,3.5,11,3.5,11ZM4,15.5C3.573,15.4897,3.218833,15.3438,2.9375,15.0625C2.656167,14.7812,2.5103333,14.427,2.5,14C2.5,14,2.5,2,2.5,2C2.5103333,1.573,2.656167,1.218833,2.9375,0.9375C3.218833,0.656167,3.573,0.5103333,4,0.5C4,0.5,12,0.5,12,0.5C12.427,0.5103333,12.7812,0.656167,13.0625,0.9375C13.3438,1.218833,13.4897,1.573,13.5,2C13.5,2,13.5,14,13.5,14C13.4897,14.427,13.3438,14.7812,13.0625,15.0625C12.7812,15.3438,12.427,15.4897,12,15.5C12,15.5,4,15.5,4,15.5C4,15.5,4,15.5,4,15.5ZM8.75,13.25C8.73967,13.4583,8.66417,13.6328,8.5235,13.7735C8.38283,13.9142,8.20833,13.9845,8,13.9845C7.79167,13.9845,7.61717,13.9142,7.4765,13.7735C7.33583,13.6328,7.2655,13.4583,7.2655,13.25C7.2655,13.0417,7.33583,12.8672,7.4765,12.7265C7.61717,12.5858,7.79167,12.5155,8,12.5155C8.20833,12.5155,8.38283,12.5858,8.5235,12.7265C8.66417,12.8672,8.73967,13.0417,8.75,13.25C8.75,13.25,8.75,13.25,8.75,13.25Z" fill="#409EFF" fill-opacity="1"/></g></g></svg>