<svg xmlns="http://www.w3.org/2000/svg" xmlns:xlink="http://www.w3.org/1999/xlink" fill="none" version="1.1" width="16" height="16" viewBox="0 0 16 16"><defs><clipPath id="master_svg0_3_004417"><rect x="0" y="0" width="16" height="16" rx="0"/></clipPath></defs><g clip-path="url(#master_svg0_3_004417)"><g><path d="M12.67247,11.500043505859376L13.66667,11.500043505859376Q13.87378,11.500043505859376,14.0202,11.353543505859376Q14.1667,11.207133505859375,14.1667,11.000013505859375L14.1667,2.333343505859375Q14.1667,2.126233505859375,14.0202,1.979788505859375Q13.87378,1.833343505859375,13.66667,1.833343505859375L5,1.833343505859375Q4.792886,1.833343505859375,4.646443,1.979788505859375Q4.5,2.126233505859375,4.5,2.333343505859375L4.5,3.309023505859375L3.5,3.309023505859375L3.5,2.333343505859375Q3.5,1.7120235058593751,3.939332,1.272685905859375Q4.378669,0.833343505859375,5,0.833343505859375L13.66667,0.833343505859375Q14.288,0.833343505859375,14.7273,1.272685805859375Q15.1667,1.712022505859375,15.1667,2.333343505859375L15.1667,11.000013505859375Q15.1667,11.621343505859375,14.7273,12.060643505859375Q14.288,12.500043505859376,13.66667,12.500043505859376L12.67247,12.500043505859376L12.67247,11.500043505859376Z" fill="#409EFF" fill-opacity="1"/></g><g><path d="M0.833343505859375,13.666643505859374L0.833343505859375,4.333343505859375Q0.833343505859375,3.712023505859375,1.272683305859375,3.272683305859375Q1.7120235058593751,2.833343505859375,2.333343505859375,2.833343505859375L11.666643505859374,2.833343505859375Q12.288043505859376,2.833343505859375,12.727343505859375,3.272683305859375Q13.166643505859374,3.712023505859375,13.166643505859374,4.333343505859375L13.166643505859374,13.666643505859374Q13.166643505859374,14.288043505859376,12.727343505859375,14.727343505859375Q12.288043505859376,15.166643505859374,11.666643505859374,15.166643505859374L2.333343505859375,15.166643505859374Q1.7120235058593751,15.166643505859374,1.272683305859375,14.727343505859375Q0.833343505859375,14.288043505859376,0.833343505859375,13.666643505859374ZM1.833343505859375,13.666643505859374Q1.833343505859375,13.873743505859375,1.979790505859375,14.020243505859375Q2.126238505859375,14.166643505859374,2.333343505859375,14.166643505859374L11.666643505859374,14.166643505859374Q11.873743505859375,14.166643505859374,12.020243505859375,14.020243505859375Q12.166643505859374,13.873743505859375,12.166643505859374,13.666643505859374L12.166643505859374,4.333343505859375Q12.166643505859374,4.126238505859375,12.020243505859375,3.979790505859375Q11.873743505859375,3.833343505859375,11.666643505859374,3.833343505859375L2.333343505859375,3.833343505859375Q2.126236505859375,3.833343505859375,1.979790505859375,3.979790505859375Q1.833343505859375,4.126236505859375,1.833343505859375,4.333343505859375L1.833343505859375,13.666643505859374Z" fill="#409EFF" fill-opacity="1"/></g><g><path d="M9.35355,6.020209494140625L7.35355,8.020206494140625Q7.31873,8.055036494140625,7.27778,8.082386494140625Q7.23684,8.109746494140625,7.19134,8.128596494140625Q7.14584,8.147436494140624,7.09754,8.157046494140625Q7.04925,8.166656494140625,7,8.166656494140625Q6.95075,8.166656494140625,6.90245,8.157046494140625Q6.85416,8.147436494140624,6.80866,8.128596494140625Q6.76316,8.109746494140625,6.7222100000000005,8.082386494140625Q6.68127,8.055036494140625,6.64645,8.020206494140625L4.646447,6.020209494140625Q4.611625,5.985387494140625,4.584265,5.944441494140625Q4.556906,5.903495494140625,4.53806,5.857998494140625Q4.519215,5.812501494140625,4.509607,5.764201594140625Q4.5,5.715902194140625,4.5,5.666656494140625Q4.5,5.617410794140625,4.509607,5.569111394140625Q4.519215,5.520811494140625,4.53806,5.475314494140625Q4.556906,5.429817494140625,4.584265,5.388871494140625Q4.611625,5.347925494140625,4.646447,5.313103494140625Q4.681269,5.278281494140625,4.722215,5.250921494140625Q4.763161,5.223562494140625,4.808658,5.204716494140625Q4.854155,5.185871494140625,4.9024549,5.176263494140625Q4.9507543,5.166656494140625,5,5.166656494140625Q5.0492457,5.166656494140625,5.0975451,5.176263494140625Q5.145845,5.185871494140625,5.191342,5.204716494140625Q5.236839,5.223562494140625,5.277785,5.250921494140625Q5.318731,5.278281494140625,5.353553,5.313103494140625L7.35355,7.313106494140625L7,7.666656494140625L6.64645,7.313106494140625L8.64645,5.313103494140625Q8.68127,5.278281494140625,8.72221,5.250921494140625Q8.76316,5.223562494140625,8.80866,5.204716494140625Q8.85415,5.185871494140625,8.90245,5.176263494140625Q8.95075,5.166656494140625,9,5.166656494140625Q9.049240000000001,5.166656494140625,9.09754,5.176263494140625Q9.14584,5.185871494140625,9.19134,5.204716494140625Q9.23684,5.223562494140625,9.27778,5.250921494140625Q9.31873,5.278281494140625,9.35355,5.313103494140625Q9.38837,5.347925494140625,9.41573,5.388871494140625Q9.44309,5.429817494140625,9.46194,5.475314494140625Q9.48078,5.520811494140625,9.49039,5.569111394140625Q9.5,5.617410794140625,9.5,5.666656494140625Q9.5,5.715902194140625,9.49039,5.764201594140625Q9.48078,5.812501494140625,9.46194,5.857998494140625Q9.44309,5.903495494140625,9.41573,5.944441494140625Q9.38837,5.985387494140625,9.35355,6.020209494140625ZM9.5,5.666656494140625Q9.5,5.715902194140625,9.49039,5.764201594140625Q9.48078,5.812501494140625,9.46194,5.857998494140625Q9.44309,5.903495494140625,9.41573,5.944441494140625Q9.38837,5.985387494140625,9.35355,6.020209494140625Q9.31873,6.055031494140625,9.27778,6.082391494140625Q9.23684,6.109750494140625,9.19134,6.128596494140625Q9.14584,6.147441494140625,9.09755,6.157049494140625Q9.04925,6.166656494140625,9,6.166656494140625Q8.95075,6.166656494140625,8.90245,6.157049494140625Q8.85415,6.147441494140625,8.80866,6.128596494140625Q8.76316,6.109750494140625,8.72221,6.082391494140625Q8.68127,6.055031494140625,8.64645,6.020209494140625Q8.61162,5.985387494140625,8.58426,5.944441494140625Q8.55691,5.903495494140625,8.53806,5.857998494140625Q8.519210000000001,5.812501494140625,8.50961,5.764201594140625Q8.5,5.715902194140625,8.5,5.666656494140625Q8.5,5.617410794140625,8.50961,5.569111394140625Q8.519210000000001,5.520811494140625,8.53806,5.475314494140625Q8.55691,5.429817494140625,8.58426,5.388871494140625Q8.61162,5.347925494140625,8.64645,5.313103494140625Q8.68127,5.278281494140625,8.72221,5.250921494140625Q8.76316,5.223562494140625,8.80866,5.204716494140625Q8.85415,5.185871494140625,8.90245,5.176263494140625Q8.95075,5.166656494140625,9,5.166656494140625Q9.04925,5.166656494140625,9.09755,5.176263494140625Q9.14584,5.185871494140625,9.19134,5.204716494140625Q9.23684,5.223562494140625,9.27778,5.250921494140625Q9.31873,5.278281494140625,9.35355,5.313103494140625Q9.38837,5.347925494140625,9.41573,5.388871494140625Q9.44309,5.429817494140625,9.46194,5.475314494140625Q9.48078,5.520811494140625,9.49039,5.569111394140625Q9.5,5.617410794140625,9.5,5.666656494140625ZM5.5,5.666656494140625Q5.5,5.715902194140625,5.490393,5.764201594140625Q5.480785,5.812501494140625,5.46194,5.857998494140625Q5.443094,5.903495494140625,5.415735,5.944441494140625Q5.388375,5.985387494140625,5.353553,6.020209494140625Q5.318731,6.055031494140625,5.277785,6.082391494140625Q5.236839,6.109750494140625,5.191342,6.128596494140625Q5.145845,6.147441494140625,5.0975451,6.157049494140625Q5.0492457,6.166656494140625,5,6.166656494140625Q4.9507543,6.166656494140625,4.9024549,6.157049494140625Q4.854155,6.147441494140625,4.808658,6.128596494140625Q4.763161,6.109750494140625,4.722215,6.082391494140625Q4.681269,6.055031494140625,4.646447,6.020209494140625Q4.611625,5.985387494140625,4.584265,5.944441494140625Q4.556906,5.903495494140625,4.53806,5.857998494140625Q4.519215,5.812501494140625,4.509607,5.764201594140625Q4.5,5.715902194140625,4.5,5.666656494140625Q4.5,5.617410794140625,4.509607,5.569111394140625Q4.519215,5.520811494140625,4.53806,5.475314494140625Q4.556906,5.429817494140625,4.584265,5.388871494140625Q4.611625,5.347925494140625,4.646447,5.313103494140625Q4.681269,5.278281494140625,4.722215,5.250921494140625Q4.763161,5.223562494140625,4.808658,5.204716494140625Q4.854155,5.185871494140625,4.9024549,5.176263494140625Q4.9507543,5.166656494140625,5,5.166656494140625Q5.0492457,5.166656494140625,5.0975451,5.176263494140625Q5.145845,5.185871494140625,5.191342,5.204716494140625Q5.236839,5.223562494140625,5.277785,5.250921494140625Q5.318731,5.278281494140625,5.353553,5.313103494140625Q5.388375,5.347925494140625,5.415735,5.388871494140625Q5.443094,5.429817494140625,5.46194,5.475314494140625Q5.480785,5.520811494140625,5.490393,5.569111394140625Q5.5,5.617410794140625,5.5,5.666656494140625Z" fill="#409EFF" fill-opacity="1"/></g><g><path d="M9.333326494140625,8.833343505859375L4.666656494140625,8.833343505859375Q4.617410794140625,8.833343505859375,4.569111394140625,8.823736505859374Q4.520811494140625,8.814128505859376,4.475314494140625,8.795283505859375Q4.429817494140625,8.776437505859375,4.388871494140625,8.749078505859375Q4.347925494140625,8.721718505859375,4.313103494140625,8.686896505859375Q4.278281494140625,8.652074505859375,4.250921494140625,8.611128505859375Q4.223562494140625,8.570182505859375,4.204716494140625,8.524685505859376Q4.185871494140625,8.479188505859375,4.176263494140625,8.430888605859375Q4.166656494140625,8.382589205859375,4.166656494140625,8.333343505859375Q4.166656494140625,8.284097805859375,4.176263494140625,8.235798405859375Q4.185871494140625,8.187498505859375,4.204716494140625,8.142001505859374Q4.223562494140625,8.096504505859375,4.250921494140625,8.055558505859375Q4.278281494140625,8.014612505859375,4.313103494140625,7.979790505859375Q4.347925494140625,7.944968505859375,4.388871494140625,7.917608505859375Q4.429817494140625,7.890249505859375,4.475314494140625,7.871403505859375Q4.520811494140625,7.852558505859375,4.569111394140625,7.842950505859375Q4.617410794140625,7.833343505859375,4.666656494140625,7.833343505859375L9.333326494140625,7.833343505859375Q9.382566494140626,7.833343505859375,9.430866494140625,7.842950505859375Q9.479166494140625,7.852558505859375,9.524666494140625,7.871403505859375Q9.570166494140626,7.890249505859375,9.611106494140625,7.917608505859375Q9.652056494140625,7.944968505859375,9.686876494140625,7.979790505859375Q9.721696494140625,8.014612505859375,9.749056494140625,8.055558505859375Q9.776416494140625,8.096504505859375,9.795266494140625,8.142001505859374Q9.814106494140624,8.187498505859375,9.823716494140626,8.235798405859375Q9.833326494140625,8.284097805859375,9.833326494140625,8.333343505859375Q9.833326494140625,8.382589205859375,9.823716494140626,8.430888605859375Q9.814106494140624,8.479188505859375,9.795266494140625,8.524685505859376Q9.776416494140625,8.570182505859375,9.749056494140625,8.611128505859375Q9.721696494140625,8.652074505859375,9.686876494140625,8.686896505859375Q9.652056494140625,8.721718505859375,9.611106494140625,8.749078505859375Q9.570166494140626,8.776437505859375,9.524666494140625,8.795283505859375Q9.479166494140625,8.814128505859376,9.430866494140625,8.823736505859374Q9.382566494140626,8.833343505859375,9.333326494140625,8.833343505859375ZM9.833326494140625,8.333343505859375Q9.833326494140625,8.382589205859375,9.823716494140626,8.430888605859375Q9.814106494140624,8.479188505859375,9.795266494140625,8.524685505859376Q9.776416494140625,8.570182505859375,9.749056494140625,8.611128505859375Q9.721696494140625,8.652074505859375,9.686876494140625,8.686896505859375Q9.652056494140625,8.721718505859375,9.611106494140625,8.749078505859375Q9.570166494140626,8.776437505859375,9.524666494140625,8.795283505859375Q9.479166494140625,8.814128505859376,9.430866494140625,8.823736505859374Q9.382566494140626,8.833343505859375,9.333326494140625,8.833343505859375Q9.284076494140624,8.833343505859375,9.235776494140625,8.823736505859374Q9.187476494140626,8.814128505859376,9.141976494140625,8.795283505859375Q9.096486494140624,8.776437505859375,9.055536494140625,8.749078505859375Q9.014586494140625,8.721718505859375,8.979766494140625,8.686896505859375Q8.944946494140625,8.652074505859375,8.917586494140625,8.611128505859375Q8.890226494140624,8.570182505859375,8.871386494140625,8.524685505859376Q8.852536494140626,8.479188505859375,8.842926494140624,8.430888605859375Q8.833326494140625,8.382589205859375,8.833326494140625,8.333343505859375Q8.833326494140625,8.284097805859375,8.842926494140624,8.235798405859375Q8.852536494140626,8.187498505859375,8.871386494140625,8.142001505859374Q8.890226494140624,8.096504505859375,8.917586494140625,8.055558505859375Q8.944946494140625,8.014612505859375,8.979766494140625,7.979790505859375Q9.014586494140625,7.944968505859375,9.055536494140625,7.917608505859375Q9.096486494140624,7.890249505859375,9.141976494140625,7.871403505859375Q9.187476494140626,7.852558505859375,9.235776494140625,7.842950505859375Q9.284076494140624,7.833343505859375,9.333326494140625,7.833343505859375Q9.382566494140626,7.833343505859375,9.430866494140625,7.842950505859375Q9.479166494140625,7.852558505859375,9.524666494140625,7.871403505859375Q9.570166494140626,7.890249505859375,9.611106494140625,7.917608505859375Q9.652056494140625,7.944968505859375,9.686876494140625,7.979790505859375Q9.721696494140625,8.014612505859375,9.749056494140625,8.055558505859375Q9.776416494140625,8.096504505859375,9.795266494140625,8.142001505859374Q9.814106494140624,8.187498505859375,9.823716494140626,8.235798405859375Q9.833326494140625,8.284097805859375,9.833326494140625,8.333343505859375ZM5.166656494140625,8.333343505859375Q5.166656494140625,8.382589205859375,5.157049494140625,8.430888605859375Q5.147441494140625,8.479188505859375,5.128596494140625,8.524685505859376Q5.109750494140625,8.570182505859375,5.082391494140625,8.611128505859375Q5.055031494140625,8.652074505859375,5.020209494140625,8.686896505859375Q4.985387494140625,8.721718505859375,4.944441494140625,8.749078505859375Q4.903495494140625,8.776437505859375,4.857998494140625,8.795283505859375Q4.812501494140625,8.814128505859376,4.764201594140625,8.823736505859374Q4.715902194140625,8.833343505859375,4.666656494140625,8.833343505859375Q4.617410794140625,8.833343505859375,4.569111394140625,8.823736505859374Q4.520811494140625,8.814128505859376,4.475314494140625,8.795283505859375Q4.429817494140625,8.776437505859375,4.388871494140625,8.749078505859375Q4.347925494140625,8.721718505859375,4.313103494140625,8.686896505859375Q4.278281494140625,8.652074505859375,4.250921494140625,8.611128505859375Q4.223562494140625,8.570182505859375,4.204716494140625,8.524685505859376Q4.185871494140625,8.479188505859375,4.176263494140625,8.430888605859375Q4.166656494140625,8.382589205859375,4.166656494140625,8.333343505859375Q4.166656494140625,8.284097805859375,4.176263494140625,8.235798405859375Q4.185871494140625,8.187498505859375,4.204716494140625,8.142001505859374Q4.223562494140625,8.096504505859375,4.250921494140625,8.055558505859375Q4.278281494140625,8.014612505859375,4.313103494140625,7.979790505859375Q4.347925494140625,7.944968505859375,4.388871494140625,7.917608505859375Q4.429817494140625,7.890249505859375,4.475314494140625,7.871403505859375Q4.520811494140625,7.852558505859375,4.569111394140625,7.842950505859375Q4.617410794140625,7.833343505859375,4.666656494140625,7.833343505859375Q4.715902194140625,7.833343505859375,4.764201594140625,7.842950505859375Q4.812501494140625,7.852558505859375,4.857998494140625,7.871403505859375Q4.903495494140625,7.890249505859375,4.944441494140625,7.917608505859375Q4.985387494140625,7.944968505859375,5.020209494140625,7.979790505859375Q5.055031494140625,8.014612505859375,5.082391494140625,8.055558505859375Q5.109750494140625,8.096504505859375,5.128596494140625,8.142001505859374Q5.147441494140625,8.187498505859375,5.157049494140625,8.235798405859375Q5.166656494140625,8.284097805859375,5.166656494140625,8.333343505859375Z" fill="#409EFF" fill-opacity="1"/></g><g><path d="M9.333326494140625,10.833343505859375L4.666656494140625,10.833343505859375Q4.617410794140625,10.833343505859375,4.569111394140625,10.823736505859374Q4.520811494140625,10.814128505859376,4.475314494140625,10.795283505859375Q4.429817494140625,10.776437505859375,4.388871494140625,10.749078505859375Q4.347925494140625,10.721718505859375,4.313103494140625,10.686896505859375Q4.278281494140625,10.652074505859375,4.250921494140625,10.611128505859375Q4.223562494140625,10.570182505859375,4.204716494140625,10.524685505859376Q4.185871494140625,10.479188505859375,4.176263494140625,10.430888605859375Q4.166656494140625,10.382589205859375,4.166656494140625,10.333343505859375Q4.166656494140625,10.284097805859375,4.176263494140625,10.235798405859375Q4.185871494140625,10.187498505859375,4.204716494140625,10.142001505859374Q4.223562494140625,10.096504505859375,4.250921494140625,10.055558505859375Q4.278281494140625,10.014612505859375,4.313103494140625,9.979790505859375Q4.347925494140625,9.944968505859375,4.388871494140625,9.917608505859375Q4.429817494140625,9.890249505859375,4.475314494140625,9.871403505859375Q4.520811494140625,9.852558505859374,4.569111394140625,9.842950505859376Q4.617410794140625,9.833343505859375,4.666656494140625,9.833343505859375L9.333326494140625,9.833343505859375Q9.382566494140626,9.833343505859375,9.430866494140625,9.842950505859376Q9.479166494140625,9.852558505859374,9.524666494140625,9.871403505859375Q9.570166494140626,9.890249505859375,9.611106494140625,9.917608505859375Q9.652056494140625,9.944968505859375,9.686876494140625,9.979790505859375Q9.721696494140625,10.014612505859375,9.749056494140625,10.055558505859375Q9.776416494140625,10.096504505859375,9.795266494140625,10.142001505859374Q9.814106494140624,10.187498505859375,9.823716494140626,10.235798405859375Q9.833326494140625,10.284097805859375,9.833326494140625,10.333343505859375Q9.833326494140625,10.382589205859375,9.823716494140626,10.430888605859375Q9.814106494140624,10.479188505859375,9.795266494140625,10.524685505859376Q9.776416494140625,10.570182505859375,9.749056494140625,10.611128505859375Q9.721696494140625,10.652074505859375,9.686876494140625,10.686896505859375Q9.652056494140625,10.721718505859375,9.611106494140625,10.749078505859375Q9.570166494140626,10.776437505859375,9.524666494140625,10.795283505859375Q9.479166494140625,10.814128505859376,9.430866494140625,10.823736505859374Q9.382566494140626,10.833343505859375,9.333326494140625,10.833343505859375ZM9.833326494140625,10.333343505859375Q9.833326494140625,10.382589205859375,9.823716494140626,10.430888605859375Q9.814106494140624,10.479188505859375,9.795266494140625,10.524685505859376Q9.776416494140625,10.570182505859375,9.749056494140625,10.611128505859375Q9.721696494140625,10.652074505859375,9.686876494140625,10.686896505859375Q9.652056494140625,10.721718505859375,9.611106494140625,10.749078505859375Q9.570166494140626,10.776437505859375,9.524666494140625,10.795283505859375Q9.479166494140625,10.814128505859376,9.430866494140625,10.823736505859374Q9.382566494140626,10.833343505859375,9.333326494140625,10.833343505859375Q9.284076494140624,10.833343505859375,9.235776494140625,10.823736505859374Q9.187476494140626,10.814128505859376,9.141976494140625,10.795283505859375Q9.096486494140624,10.776437505859375,9.055536494140625,10.749078505859375Q9.014586494140625,10.721718505859375,8.979766494140625,10.686896505859375Q8.944946494140625,10.652074505859375,8.917586494140625,10.611128505859375Q8.890226494140624,10.570182505859375,8.871386494140625,10.524685505859376Q8.852536494140626,10.479188505859375,8.842926494140624,10.430888605859375Q8.833326494140625,10.382589205859375,8.833326494140625,10.333343505859375Q8.833326494140625,10.284097805859375,8.842926494140624,10.235798405859375Q8.852536494140626,10.187498505859375,8.871386494140625,10.142001505859374Q8.890226494140624,10.096504505859375,8.917586494140625,10.055558505859375Q8.944946494140625,10.014612505859375,8.979766494140625,9.979790505859375Q9.014586494140625,9.944968505859375,9.055536494140625,9.917608505859375Q9.096486494140624,9.890249505859375,9.141976494140625,9.871403505859375Q9.187476494140626,9.852558505859374,9.235776494140625,9.842950505859376Q9.284076494140624,9.833343505859375,9.333326494140625,9.833343505859375Q9.382566494140626,9.833343505859375,9.430866494140625,9.842950505859376Q9.479166494140625,9.852558505859374,9.524666494140625,9.871403505859375Q9.570166494140626,9.890249505859375,9.611106494140625,9.917608505859375Q9.652056494140625,9.944968505859375,9.686876494140625,9.979790505859375Q9.721696494140625,10.014612505859375,9.749056494140625,10.055558505859375Q9.776416494140625,10.096504505859375,9.795266494140625,10.142001505859374Q9.814106494140624,10.187498505859375,9.823716494140626,10.235798405859375Q9.833326494140625,10.284097805859375,9.833326494140625,10.333343505859375ZM5.166656494140625,10.333343505859375Q5.166656494140625,10.382589205859375,5.157049494140625,10.430888605859375Q5.147441494140625,10.479188505859375,5.128596494140625,10.524685505859376Q5.109750494140625,10.570182505859375,5.082391494140625,10.611128505859375Q5.055031494140625,10.652074505859375,5.020209494140625,10.686896505859375Q4.985387494140625,10.721718505859375,4.944441494140625,10.749078505859375Q4.903495494140625,10.776437505859375,4.857998494140625,10.795283505859375Q4.812501494140625,10.814128505859376,4.764201594140625,10.823736505859374Q4.715902194140625,10.833343505859375,4.666656494140625,10.833343505859375Q4.617410794140625,10.833343505859375,4.569111394140625,10.823736505859374Q4.520811494140625,10.814128505859376,4.475314494140625,10.795283505859375Q4.429817494140625,10.776437505859375,4.388871494140625,10.749078505859375Q4.347925494140625,10.721718505859375,4.313103494140625,10.686896505859375Q4.278281494140625,10.652074505859375,4.250921494140625,10.611128505859375Q4.223562494140625,10.570182505859375,4.204716494140625,10.524685505859376Q4.185871494140625,10.479188505859375,4.176263494140625,10.430888605859375Q4.166656494140625,10.382589205859375,4.166656494140625,10.333343505859375Q4.166656494140625,10.284097805859375,4.176263494140625,10.235798405859375Q4.185871494140625,10.187498505859375,4.204716494140625,10.142001505859374Q4.223562494140625,10.096504505859375,4.250921494140625,10.055558505859375Q4.278281494140625,10.014612505859375,4.313103494140625,9.979790505859375Q4.347925494140625,9.944968505859375,4.388871494140625,9.917608505859375Q4.429817494140625,9.890249505859375,4.475314494140625,9.871403505859375Q4.520811494140625,9.852558505859374,4.569111394140625,9.842950505859376Q4.617410794140625,9.833343505859375,4.666656494140625,9.833343505859375Q4.715902194140625,9.833343505859375,4.764201594140625,9.842950505859376Q4.812501494140625,9.852558505859374,4.857998494140625,9.871403505859375Q4.903495494140625,9.890249505859375,4.944441494140625,9.917608505859375Q4.985387494140625,9.944968505859375,5.020209494140625,9.979790505859375Q5.055031494140625,10.014612505859375,5.082391494140625,10.055558505859375Q5.109750494140625,10.096504505859375,5.128596494140625,10.142001505859374Q5.147441494140625,10.187498505859375,5.157049494140625,10.235798405859375Q5.166656494140625,10.284097805859375,5.166656494140625,10.333343505859375Z" fill="#409EFF" fill-opacity="1"/></g><g><path d="M6.5,12.000013505859375L6.5,8.333343505859375Q6.5,8.284097805859375,6.509607,8.235798405859375Q6.519215,8.187498505859375,6.53806,8.142001505859374Q6.556906,8.096504505859375,6.584265,8.055558505859375Q6.611625,8.014612505859375,6.646447,7.979790505859375Q6.681269,7.944968505859375,6.722215,7.917608505859375Q6.763161,7.890249505859375,6.808658,7.871403505859375Q6.854155,7.852558505859375,6.9024549,7.842950505859375Q6.9507543,7.833343505859375,7,7.833343505859375Q7.0492457,7.833343505859375,7.0975451,7.842950505859375Q7.145845,7.852558505859375,7.191342,7.871403505859375Q7.236839,7.890249505859375,7.277785,7.917608505859375Q7.318731,7.944968505859375,7.353553,7.979790505859375Q7.388375,8.014612505859375,7.415735,8.055558505859375Q7.443094,8.096504505859375,7.46194,8.142001505859374Q7.480785,8.187498505859375,7.490393,8.235798405859375Q7.5,8.284097805859375,7.5,8.333343505859375L7.5,12.000013505859375Q7.5,12.049253505859376,7.490393,12.097553505859375Q7.480785,12.145853505859375,7.46194,12.191353505859375Q7.443094,12.236853505859376,7.415735,12.277793505859375Q7.388375,12.318743505859375,7.353553,12.353563505859375Q7.318731,12.388383505859375,7.277785,12.415743505859375Q7.236839,12.443103505859375,7.191342,12.461953505859375Q7.145845,12.480793505859374,7.0975451,12.490403505859376Q7.0492457,12.500013505859375,7,12.500013505859375Q6.9507543,12.500013505859375,6.9024549,12.490403505859376Q6.854155,12.480793505859374,6.808658,12.461953505859375Q6.763161,12.443103505859375,6.722215,12.415743505859375Q6.681269,12.388383505859375,6.646447,12.353563505859375Q6.611625,12.318743505859375,6.584265,12.277793505859375Q6.556906,12.236853505859376,6.53806,12.191353505859375Q6.519215,12.145853505859375,6.509607,12.097553505859375Q6.5,12.049253505859376,6.5,12.000013505859375ZM7.5,12.000013505859375Q7.5,12.049253505859376,7.490393,12.097553505859375Q7.480785,12.145853505859375,7.46194,12.191353505859375Q7.443094,12.236853505859376,7.415735,12.277793505859375Q7.388375,12.318743505859375,7.353553,12.353563505859375Q7.318731,12.388383505859375,7.277785,12.415743505859375Q7.236839,12.443103505859375,7.191342,12.461953505859375Q7.145845,12.480793505859374,7.0975451,12.490403505859376Q7.0492457,12.500013505859375,7,12.500013505859375Q6.9507543,12.500013505859375,6.9024549,12.490403505859376Q6.854155,12.480793505859374,6.808658,12.461953505859375Q6.763161,12.443103505859375,6.722215,12.415743505859375Q6.681269,12.388383505859375,6.646447,12.353563505859375Q6.611625,12.318743505859375,6.584265,12.277793505859375Q6.556906,12.236853505859376,6.53806,12.191353505859375Q6.519215,12.145853505859375,6.509607,12.097553505859375Q6.5,12.049253505859376,6.5,12.000013505859375Q6.5,11.950763505859374,6.509607,11.902463505859375Q6.519215,11.854163505859376,6.53806,11.808663505859375Q6.556906,11.763173505859374,6.584265,11.722223505859375Q6.611625,11.681273505859375,6.646447,11.646453505859375Q6.681269,11.611633505859375,6.722215,11.584273505859375Q6.763161,11.556913505859375,6.808658,11.538073505859375Q6.854155,11.519223505859376,6.9024549,11.509613505859376Q6.9507543,11.500013505859375,7,11.500013505859375Q7.0492457,11.500013505859375,7.0975451,11.509613505859376Q7.145845,11.519223505859376,7.191342,11.538073505859375Q7.236839,11.556913505859375,7.277785,11.584273505859375Q7.318731,11.611633505859375,7.353553,11.646453505859375Q7.388375,11.681273505859375,7.415735,11.722223505859375Q7.443094,11.763173505859374,7.46194,11.808663505859375Q7.480785,11.854163505859376,7.490393,11.902463505859375Q7.5,11.950763505859374,7.5,12.000013505859375ZM7.5,8.333343505859375Q7.5,8.382589205859375,7.490393,8.430888605859375Q7.480785,8.479188505859375,7.46194,8.524685505859376Q7.443094,8.570182505859375,7.415735,8.611128505859375Q7.388375,8.652074505859375,7.353553,8.686896505859375Q7.318731,8.721718505859375,7.277785,8.749078505859375Q7.236839,8.776437505859375,7.191342,8.795283505859375Q7.145845,8.814128505859376,7.0975451,8.823736505859374Q7.0492457,8.833343505859375,7,8.833343505859375Q6.9507543,8.833343505859375,6.9024549,8.823736505859374Q6.854155,8.814128505859376,6.808658,8.795283505859375Q6.763161,8.776437505859375,6.722215,8.749078505859375Q6.681269,8.721718505859375,6.646447,8.686896505859375Q6.611625,8.652074505859375,6.584265,8.611128505859375Q6.556906,8.570182505859375,6.53806,8.524685505859376Q6.519215,8.479188505859375,6.509607,8.430888605859375Q6.5,8.382589205859375,6.5,8.333343505859375Q6.5,8.284097805859375,6.509607,8.235798405859375Q6.519215,8.187498505859375,6.53806,8.142001505859374Q6.556906,8.096504505859375,6.584265,8.055558505859375Q6.611625,8.014612505859375,6.646447,7.979790505859375Q6.681269,7.944968505859375,6.722215,7.917608505859375Q6.763161,7.890249505859375,6.808658,7.871403505859375Q6.854155,7.852558505859375,6.9024549,7.842950505859375Q6.9507543,7.833343505859375,7,7.833343505859375Q7.0492457,7.833343505859375,7.0975451,7.842950505859375Q7.145845,7.852558505859375,7.191342,7.871403505859375Q7.236839,7.890249505859375,7.277785,7.917608505859375Q7.318731,7.944968505859375,7.353553,7.979790505859375Q7.388375,8.014612505859375,7.415735,8.055558505859375Q7.443094,8.096504505859375,7.46194,8.142001505859374Q7.480785,8.187498505859375,7.490393,8.235798405859375Q7.5,8.284097805859375,7.5,8.333343505859375Z" fill="#409EFF" fill-opacity="1"/></g></g></svg>
