<svg xmlns="http://www.w3.org/2000/svg" xmlns:xlink="http://www.w3.org/1999/xlink" fill="none" version="1.1" width="18" height="18" viewBox="0 0 18 18"><defs><clipPath id="master_svg0_463_20593/1_117"><rect x="0" y="0" width="18" height="18" rx="0"/></clipPath></defs><g style="mix-blend-mode:passthrough" clip-path="url(#master_svg0_463_20593/1_117)"><g style="mix-blend-mode:passthrough"><path d="M3,3C2.80108,3,2.6103199999999998,3.07902,2.46967,3.21967C2.32902,3.3603199999999998,2.25,3.55108,2.25,3.75C2.25,3.75,2.25,11.25,2.25,11.25C2.25,11.4489,2.32902,11.6397,2.46967,11.7803C2.6103199999999998,11.9209,2.80108,12,3,12C3,12,3.75,12,3.75,12C4.164210000000001,12,4.5,12.3358,4.5,12.75C4.5,13.1642,4.164210000000001,13.5,3.75,13.5C3.75,13.5,3,13.5,3,13.5C2.40326,13.5,1.83097,13.2629,1.4090099999999999,12.841C0.987053,12.419,0.75,11.8467,0.75,11.25C0.75,11.25,0.75,3.75,0.75,3.75C0.75,3.15326,0.987053,2.5809699999999998,1.4090099999999999,2.15901C1.83097,1.737053,2.40326,1.5,3,1.5C3,1.5,15,1.5,15,1.5C15.5968,1.5,16.169,1.737053,16.591,2.15901C17.0129,2.5809699999999998,17.25,3.15326,17.25,3.75C17.25,3.75,17.25,11.25,17.25,11.25C17.25,11.8468,17.0129,12.419,16.591,12.841C16.169,13.2629,15.5968,13.5,15,13.5C15,13.5,14.25,13.5,14.25,13.5C13.8358,13.5,13.5,13.1642,13.5,12.75C13.5,12.3358,13.8358,12,14.25,12C14.25,12,15,12,15,12C15.1989,12,15.3897,11.9209,15.5303,11.7803C15.6709,11.6397,15.75,11.4489,15.75,11.25C15.75,11.25,15.75,3.75,15.75,3.75C15.75,3.55108,15.6709,3.3603199999999998,15.5303,3.21967C15.3897,3.07902,15.1989,3,15,3C15,3,3,3,3,3C3,3,3,3,3,3ZM9,10.5C9.2226,10.5,9.43365,10.59885,9.57615,10.76985C9.57615,10.76985,13.3261,15.2698,13.3261,15.2698C13.5124,15.4934,13.5527,15.8046,13.4292,16.0681C13.3057,16.3316,13.041,16.5,12.75,16.5C12.75,16.5,5.25,16.5,5.25,16.5C4.95898,16.5,4.694240000000001,16.3316,4.57081,16.0681C4.447369999999999,15.8046,4.48753,15.4934,4.67384,15.2698C4.67384,15.2698,8.42385,10.76985,8.42385,10.76985C8.56635,10.59885,8.7774,10.5,9,10.5C9,10.5,9,10.5,9,10.5ZM6.85128,15C6.85128,15,11.1488,15,11.1488,15C11.1488,15,9,12.4215,9,12.4215C9,12.4215,6.85128,15,6.85128,15C6.85128,15,6.85128,15,6.85128,15Z" fill-rule="evenodd" fill="#409EFF" fill-opacity="1"/></g></g></svg>