<svg t="1697822425875" class="icon" viewBox="0 0 1024 1024" version="1.1" xmlns="http://www.w3.org/2000/svg" p-id="7159" width="30" height="30"><path d="M501.6 480.5c82.8 0 150-67.2 150-150s-67.2-150-150-150-150 67.2-150 150 67.2 150 150 150z m-84.9-234.9c22.7-22.6 52.8-35.1 84.9-35.1 32.1 0 62.2 12.5 84.9 35.1 22.7 22.7 35.1 52.8 35.1 84.9 0 32.1-12.5 62.2-35.1 84.9-22.7 22.7-52.8 35.1-84.9 35.1-32.1 0-62.2-12.5-84.9-35.1-22.7-22.7-35.1-52.8-35.1-84.9 0-32.1 12.5-62.2 35.1-84.9zM511.6 770.4h-145c-55.1 0-100-44.9-100-100 0-26.7 10.4-51.8 29.3-70.7 18.9-18.9 44-29.3 70.7-29.3h270c35.4 0 68.5 19 86.4 49.6 4.2 7.2 13.4 9.6 20.5 5.4 7.2-4.2 9.6-13.4 5.4-20.5-23.3-39.7-66.3-64.4-112.3-64.4h-270c-34.7 0-67.3 13.5-91.9 38.1-24.6 24.5-38.1 57.2-38.1 91.9 0 71.7 58.3 130 130 130h145c8.3 0 15-6.8 15-15.1s-6.7-15-15-15z" fill="#ffffff" p-id="7160"></path><path d="M757.6 728.5h-70v-70c0-8.3-6.7-15-15-15s-15 6.7-15 15v70h-70c-8.3 0-15 6.7-15 15s6.7 15 15 15h70v70c0 8.3 6.7 15 15 15s15-6.7 15-15v-70h70c8.3 0 15-6.7 15-15s-6.7-15-15-15z" fill="#ffffff" p-id="7161"></path></svg>