<svg xmlns="http://www.w3.org/2000/svg" xmlns:xlink="http://www.w3.org/1999/xlink" fill="none" version="1.1" width="18" height="18" viewBox="0 0 18 18"><defs><clipPath id="master_svg0_2298_15487"><rect x="0" y="0" width="18" height="18" rx="0"/></clipPath></defs><g clip-path="url(#master_svg0_2298_15487)"><g><rect x="0" y="0" width="18" height="18" rx="0" fill="#FFFFFF" fill-opacity="0.009999999776482582"/></g><g><path d="M1.5,14.5L1.5,10.25Q1.5,9.110913,2.3054563,8.3054563Q3.110913,7.5,4.25,7.5L13.75,7.5Q14.8891,7.5,15.6945,8.3054563Q16.5,9.110915,16.5,10.25L16.5,14.5Q16.5,15.63909,15.6945,16.44454Q14.8891,17.25,13.75,17.25L4.25,17.25Q3.110913,17.25,2.3054563,16.44454Q1.5,15.63909,1.5,14.5ZM3,14.5Q3,15.017769999999999,3.36612,15.383880000000001Q3.73223,15.75,4.25,15.75L13.75,15.75Q14.2678,15.75,14.6339,15.383880000000001Q15,15.017769999999999,15,14.5L15,10.25Q15,9.73223,14.6339,9.36612Q14.2678,9,13.75,9L4.25,9Q3.73223,9,3.36612,9.36612Q3,9.73223,3,10.25L3,14.5Z" fill="#4E5969" fill-opacity="1"/></g><g><path d="M12,8.25L12,5.25Q12,4.00736,11.12132,3.12868Q10.24263,2.25,9,2.25Q7.75737,2.25,6.87869,3.12868Q6,4.00736,6,5.25L6,8.25Q6,8.32387,5.985589,8.39632Q5.971178,8.46877,5.94291,8.53701Q5.914641,8.605260000000001,5.873602,8.66668Q5.832563,8.728100000000001,5.78033,8.78033Q5.728097,8.83256,5.666678,8.8736Q5.605258,8.91464,5.537013,8.942910000000001Q5.468767,8.97118,5.396318,8.98559Q5.3238685,9,5.25,9Q5.1761315,9,5.103682,8.98559Q5.031233,8.97118,4.962987,8.942910000000001Q4.894742,8.91464,4.833322,8.8736Q4.771903,8.83256,4.71967,8.78033Q4.667437,8.728100000000001,4.626398,8.66668Q4.585359,8.605260000000001,4.55709,8.53701Q4.528822,8.46877,4.514411,8.39632Q4.5,8.32387,4.5,8.25L4.5,5.25Q4.5,3.38604,5.818027,2.068018Q7.13605,0.75,9,0.75Q10.863949999999999,0.75,12.18197,2.068018Q13.5,3.38604,13.5,5.25L13.5,8.25Q13.5,8.32387,13.48559,8.39632Q13.47118,8.46877,13.44291,8.53701Q13.41464,8.605260000000001,13.3736,8.66668Q13.33256,8.728100000000001,13.28033,8.78033Q13.228100000000001,8.83256,13.16668,8.8736Q13.105260000000001,8.91464,13.03701,8.942910000000001Q12.96877,8.97118,12.89632,8.98559Q12.82387,9,12.75,9Q12.67613,9,12.60368,8.98559Q12.53123,8.97118,12.46299,8.942910000000001Q12.394739999999999,8.91464,12.33332,8.8736Q12.271899999999999,8.83256,12.21967,8.78033Q12.16744,8.728100000000001,12.1264,8.66668Q12.08536,8.605260000000001,12.057089999999999,8.53701Q12.02882,8.46877,12.01441,8.39632Q12,8.32387,12,8.25ZM13.5,8.25Q13.5,8.32387,13.48559,8.39632Q13.47118,8.46877,13.44291,8.53701Q13.41464,8.605260000000001,13.3736,8.66668Q13.33256,8.728100000000001,13.28033,8.78033Q13.228100000000001,8.83256,13.16668,8.8736Q13.105260000000001,8.91464,13.03701,8.942910000000001Q12.96877,8.97118,12.89632,8.98559Q12.82387,9,12.75,9Q12.67613,9,12.60368,8.98559Q12.53123,8.97118,12.46299,8.942910000000001Q12.394739999999999,8.91464,12.33332,8.8736Q12.271899999999999,8.83256,12.21967,8.78033Q12.16744,8.728100000000001,12.1264,8.66668Q12.08536,8.605260000000001,12.057089999999999,8.53701Q12.02882,8.46877,12.01441,8.39632Q12,8.32387,12,8.25Q12,8.17613,12.01441,8.10368Q12.02882,8.03123,12.057089999999999,7.96299Q12.08536,7.89474,12.1264,7.83332Q12.16744,7.7719,12.21967,7.71967Q12.271899999999999,7.66744,12.33332,7.6264Q12.394739999999999,7.58536,12.46299,7.55709Q12.53123,7.52882,12.60368,7.51441Q12.67613,7.5,12.75,7.5Q12.82387,7.5,12.89632,7.51441Q12.96877,7.52882,13.03701,7.55709Q13.105260000000001,7.58536,13.16668,7.6264Q13.228100000000001,7.66744,13.28033,7.71967Q13.33256,7.7719,13.3736,7.83332Q13.41464,7.89474,13.44291,7.96299Q13.47118,8.03123,13.48559,8.10368Q13.5,8.17613,13.5,8.25ZM6,8.25Q6,8.32387,5.985589,8.39632Q5.971178,8.46877,5.94291,8.53701Q5.914641,8.605260000000001,5.873602,8.66668Q5.832563,8.728100000000001,5.78033,8.78033Q5.728097,8.83256,5.666678,8.8736Q5.605258,8.91464,5.537013,8.942910000000001Q5.468767,8.97118,5.396318,8.98559Q5.3238685,9,5.25,9Q5.1761315,9,5.103682,8.98559Q5.031233,8.97118,4.962987,8.942910000000001Q4.894742,8.91464,4.833322,8.8736Q4.771903,8.83256,4.71967,8.78033Q4.667437,8.728100000000001,4.626398,8.66668Q4.585359,8.605260000000001,4.55709,8.53701Q4.528822,8.46877,4.514411,8.39632Q4.5,8.32387,4.5,8.25Q4.5,8.17613,4.514411,8.10368Q4.528822,8.03123,4.55709,7.96299Q4.585359,7.89474,4.626398,7.83332Q4.667437,7.7719,4.71967,7.71967Q4.771903,7.66744,4.833322,7.6264Q4.894742,7.58536,4.962987,7.55709Q5.031233,7.52882,5.103682,7.51441Q5.1761315,7.5,5.25,7.5Q5.3238685,7.5,5.396318,7.51441Q5.468767,7.52882,5.537013,7.55709Q5.605258,7.58536,5.666678,7.6264Q5.728097,7.66744,5.78033,7.71967Q5.832563,7.7719,5.873602,7.83332Q5.914641,7.89474,5.94291,7.96299Q5.971178,8.03123,5.985589,8.10368Q6,8.17613,6,8.25Z" fill="#4E5969" fill-opacity="1"/></g><g><path d="M8.25,13.5L8.25,11.25Q8.25,11.1761315,8.264410999999999,11.103682Q8.278822,11.031233,8.30709,10.962987Q8.335359,10.894742,8.376398,10.833322Q8.417437,10.771903,8.46967,10.71967Q8.521903,10.667437,8.583322,10.626398Q8.644742,10.585359,8.712987,10.55709Q8.781233,10.528822,8.853682,10.514410999999999Q8.9261315,10.5,9,10.5Q9.0738685,10.5,9.146318,10.514410999999999Q9.218767,10.528822,9.287013,10.55709Q9.355258,10.585359,9.416678,10.626398Q9.478097,10.667437,9.53033,10.71967Q9.582563,10.771903,9.623602,10.833322Q9.664641,10.894742,9.69291,10.962987Q9.721178,11.031233,9.735589000000001,11.103682Q9.75,11.1761315,9.75,11.25L9.75,13.5Q9.75,13.57387,9.735589000000001,13.64632Q9.721178,13.71877,9.69291,13.78701Q9.664641,13.85526,9.623602,13.91668Q9.582563,13.9781,9.53033,14.03033Q9.478097,14.08256,9.416678,14.1236Q9.355258,14.16464,9.287013,14.19291Q9.218767,14.22118,9.146318,14.23559Q9.0738685,14.25,9,14.25Q8.9261315,14.25,8.853682,14.23559Q8.781233,14.22118,8.712987,14.19291Q8.644742,14.16464,8.583322,14.1236Q8.521903,14.08256,8.46967,14.03033Q8.417437,13.9781,8.376398,13.91668Q8.335359,13.85526,8.30709,13.78701Q8.278822,13.71877,8.264410999999999,13.64632Q8.25,13.57387,8.25,13.5ZM9.75,13.5Q9.75,13.57387,9.735589000000001,13.64632Q9.721178,13.71877,9.69291,13.78701Q9.664641,13.85526,9.623602,13.91668Q9.582563,13.9781,9.53033,14.03033Q9.478097,14.08256,9.416678,14.1236Q9.355258,14.16464,9.287013,14.19291Q9.218767,14.22118,9.146318,14.23559Q9.0738685,14.25,9,14.25Q8.9261315,14.25,8.853682,14.23559Q8.781233,14.22118,8.712987,14.19291Q8.644742,14.16464,8.583322,14.1236Q8.521903,14.08256,8.46967,14.03033Q8.417437,13.9781,8.376398,13.91668Q8.335359,13.85526,8.30709,13.78701Q8.278822,13.71877,8.264410999999999,13.64632Q8.25,13.57387,8.25,13.5Q8.25,13.42613,8.264410999999999,13.35368Q8.278822,13.28123,8.30709,13.21299Q8.335359,13.14474,8.376398,13.08332Q8.417437,13.0219,8.46967,12.96967Q8.521903,12.91744,8.583322,12.8764Q8.644742,12.83536,8.712987,12.80709Q8.781233,12.77882,8.853682,12.76441Q8.9261315,12.75,9,12.75Q9.0738685,12.75,9.146318,12.76441Q9.218767,12.77882,9.287013,12.80709Q9.355258,12.83536,9.416678,12.8764Q9.478097,12.91744,9.53033,12.96967Q9.582563,13.0219,9.623602,13.08332Q9.664641,13.14474,9.69291,13.21299Q9.721178,13.28123,9.735589000000001,13.35368Q9.75,13.42613,9.75,13.5ZM9.75,11.25Q9.75,11.3238685,9.735589000000001,11.396318Q9.721178,11.468767,9.69291,11.537013Q9.664641,11.605258,9.623602,11.666678Q9.582563,11.728097,9.53033,11.78033Q9.478097,11.832563,9.416678,11.873602Q9.355258,11.914641,9.287013,11.94291Q9.218767,11.971178,9.146318,11.985589000000001Q9.0738685,12,9,12Q8.9261315,12,8.853682,11.985589000000001Q8.781233,11.971178,8.712987,11.94291Q8.644742,11.914641,8.583322,11.873602Q8.521903,11.832563,8.46967,11.78033Q8.417437,11.728097,8.376398,11.666678Q8.335359,11.605258,8.30709,11.537013Q8.278822,11.468767,8.264410999999999,11.396318Q8.25,11.3238685,8.25,11.25Q8.25,11.1761315,8.264410999999999,11.103682Q8.278822,11.031233,8.30709,10.962987Q8.335359,10.894742,8.376398,10.833322Q8.417437,10.771903,8.46967,10.71967Q8.521903,10.667437,8.583322,10.626398Q8.644742,10.585359,8.712987,10.55709Q8.781233,10.528822,8.853682,10.514410999999999Q8.9261315,10.5,9,10.5Q9.0738685,10.5,9.146318,10.514410999999999Q9.218767,10.528822,9.287013,10.55709Q9.355258,10.585359,9.416678,10.626398Q9.478097,10.667437,9.53033,10.71967Q9.582563,10.771903,9.623602,10.833322Q9.664641,10.894742,9.69291,10.962987Q9.721178,11.031233,9.735589000000001,11.103682Q9.75,11.1761315,9.75,11.25Z" fill="#4E5969" fill-opacity="1"/></g></g></svg>