<svg xmlns="http://www.w3.org/2000/svg" xmlns:xlink="http://www.w3.org/1999/xlink" fill="none" version="1.1" width="18" height="18" viewBox="0 0 18 18"><defs><clipPath id="master_svg0_2298_15476"><rect x="0" y="0" width="18" height="18" rx="0"/></clipPath></defs><g clip-path="url(#master_svg0_2298_15476)"><g><rect x="0" y="0" width="18" height="18" rx="0" fill="#FFFFFF" fill-opacity="0.009999999776482582"/></g><g><path d="M7.125,4.875Q7.125,5.65165,7.67417,6.20083Q8.22335,6.75,9,6.75Q9.77665,6.75,10.32583,6.20083Q10.875,5.65165,10.875,4.875Q10.875,4.09835,10.32583,3.54918Q9.77665,3,9,3Q8.22335,3,7.67417,3.54918Q7.125,4.09835,7.125,4.875L7.125,4.875ZM5.625,4.875Q5.625,3.47703,6.613514,2.488515Q7.60203,1.5,9,1.5Q10.39797,1.5,11.38649,2.488515Q12.375,3.47703,12.375,4.875Q12.375,6.27297,11.38649,7.26149Q10.39797,8.25,9,8.25Q7.60203,8.25,6.613514,7.26149Q5.625,6.27297,5.625,4.875L5.625,4.875Z" fill="#4E5969" fill-opacity="1"/></g><g><path d="M3.2452360000000002,12.47853Q3.087637,12.78784,3.038382,13.39069Q3,13.86046,3,15.3L3,15.75L2.25,15.75L2.25,15L15.75,15L15.75,15.75L15,15.75L15,15.3Q15,13.86046,14.9616,13.39068Q14.9124,12.78783,14.7548,12.47851Q14.4229,11.82713,13.7715,11.495215Q13.4622,11.337633,12.8593,11.28838Q12.3895,11.25,10.95,11.25L7.05,11.25Q5.61046,11.25,5.14069,11.28838Q4.53783,11.337633,4.22851,11.495226Q3.57714,11.82712,3.245238,12.47853L3.2452360000000002,12.47853ZM1.908725,11.79755Q2.461897,10.711874,3.54756,10.1587Q4.12064,9.866719,5.01854,9.793361Q5.5492799999999995,9.75,7.05,9.75L10.95,9.75Q12.4507,9.75,12.9815,9.793361Q13.8794,9.866719,14.4525,10.15871Q15.5381,10.711886,16.0913,11.79756Q16.3833,12.37064,16.4566,13.26854Q16.5,13.79929,16.5,15.3L16.5,15.75Q16.5,15.82387,16.485599999999998,15.89632Q16.4712,15.96877,16.4429,16.037010000000002Q16.4146,16.10526,16.3736,16.16668Q16.3326,16.2281,16.2803,16.28033Q16.228099999999998,16.33256,16.1667,16.3736Q16.1053,16.41464,16.037,16.44291Q15.9688,16.47118,15.8963,16.485590000000002Q15.8239,16.5,15.75,16.5L2.25,16.5Q2.1761315,16.5,2.103682,16.485590000000002Q2.031233,16.47118,1.962987,16.44291Q1.894742,16.41464,1.833322,16.3736Q1.771903,16.33256,1.71967,16.28033Q1.667437,16.2281,1.626398,16.16668Q1.585359,16.10526,1.55709,16.037010000000002Q1.528822,15.96877,1.514411,15.89632Q1.5,15.82387,1.5,15.75L1.5,15.3Q1.5,13.79928,1.543363,13.26854Q1.6167259999999999,12.37063,1.908726,11.79754L1.908725,11.79755Z" fill="#4E5969" fill-opacity="1"/></g></g></svg>