<svg xmlns="http://www.w3.org/2000/svg" xmlns:xlink="http://www.w3.org/1999/xlink" fill="none" version="1.1" width="70" height="70" viewBox="0 0 70 70"><defs><clipPath id="master_svg0_49_60205"><rect x="0" y="0" width="70" height="70" rx="8"/></clipPath><clipPath id="master_svg1_49_17790"><rect x="13" y="13" width="45" height="45" rx="0"/></clipPath></defs><g style="mix-blend-mode:passthrough" clip-path="url(#master_svg0_49_60205)"><g clip-path="url(#master_svg1_49_17790)"><g><path d="M55.1875,25.7238L47.8469,32.6875L28.778100000000002,51.5256L28.0637,58L15.26687,58C14.02905,58.0002,13.0199641,57.0073,13,55.7697L13,15.23031C13,13.998437,14.00125,13,15.26687,13L52.9206,13C54.1722,13,55.1875,14.02375,55.1875,15.23031L55.1875,25.7209L55.1875,25.7238ZM18.57719,36.625C18.57719,37.2269,19.08625,37.75,19.71906,37.75L29.8103,37.75C30.4206,37.75,30.9522,37.243700000000004,30.9522,36.625C30.9522,36.0231,30.4403,35.5,29.8103,35.5L19.71906,35.5C19.09619,35.5029,18.58939,36.0022,18.57719,36.625ZM18.57719,45.625C18.57719,46.2269,19.07781,46.75,19.699370000000002,46.75L27.58,46.75C28.2128,46.75,28.702199999999998,46.2437,28.702199999999998,45.625C28.702199999999998,45.0231,28.1988,44.5,27.577199999999998,44.5L19.70219,44.5C19.07826,44.493700000000004,18.57085,45.0011,18.57719,45.625ZM18.57719,26.5C18.57719,27.1019,19.07219,27.625,19.6825,27.625L34.346900000000005,27.625C34.9374,27.583199999999998,35.3951,27.092,35.3951,26.5C35.3951,25.908,34.9374,25.416800000000002,34.346900000000005,25.375L19.6825,25.375C19.06375,25.375,18.57719,25.8812,18.57719,26.5ZM38.875,56.875C38.875,56.2562,39.3559,55.75,40.0112,55.75L42.2387,55.75C42.865899999999996,55.75,43.375,56.2731,43.375,56.875C43.375,57.4938,42.8941,58,42.2387,58L40.0112,58C39.3893,57.997,38.8842,57.4969,38.875,56.875ZM44.5,56.875C44.5,56.2562,44.9809,55.75,45.6362,55.75L47.8637,55.75C48.4909,55.75,49,56.2731,49,56.875C49,57.4938,48.5191,58,47.8637,58L45.6362,58C45.0143,57.997,44.5092,57.4969,44.5,56.875ZM50.125,56.875C50.125,56.2562,50.6453,55.75,51.2641,55.75L54.6109,55.75C55.2409,55.75,55.75,56.2731,55.75,56.875C55.75,57.4938,55.2297,58,54.6109,58L51.2641,58C50.6417,57.997,50.1357,57.4973,50.125,56.875Z" fill="#0256FF" fill-opacity="1"/></g><g><path d="M30.64883946875,52.44246948242187C30.66230546875,52.34956948242187,30.70576346875,52.263669482421875,30.77259046875,52.197769482421876L30.90196546875,52.071269482421876L35.83227546875,56.96496948242188L35.702905468750004,57.091569482421875C35.63638546875,57.15696948242187,35.55062546875,57.19936948242187,35.45821546875,57.212469482421874L30.40134146875,57.94936948242187C30.11387046875,57.99386948242187,29.86514136875,57.74796948242188,29.90634145875,57.459969482421876L30.64883946875,52.44246948242187ZM56.94855546875,36.01746948242187L54.79135546875,38.15777948242187L49.85825546875,33.266849482421875L52.01535546875,31.126532482421876C52.18695546875,30.957782382421875,52.465355468750005,30.957782382421875,52.634155468749995,31.126532482421876L56.94855546875,35.407159482421875C57.11725546875,35.57590948242188,57.11725546875,35.84871948242188,56.94855546875,36.01746948242187ZM53.71415546875,38.61902948242187C53.88285546875,38.787779482421875,53.95885546875,38.984659482421876,53.79005546875,39.15340948242188L36.44821546875,56.351869482421876L31.51790546875,51.45806948242188L48.85695546875,34.259659482421874C49.02575546875,34.09090948242188,49.225355468749996,34.166849482421874,49.39695546875,34.33840948242187L53.71135546875,38.61902948242187L53.71415546875,38.61902948242187ZM43.91535546875,42.249969482421875C44.12655546875,42.040869482421876,44.12655546875,41.699669482421875,43.91535546875,41.490569482421876C43.70305546875,41.281869482421875,43.36265546875,41.281869482421875,43.15035546875,41.490569482421876L34.83383546875,49.742469482421875C34.62458546875,49.95126948242188,34.62458546875,50.29026948242188,34.83383546875,50.49906948242187C35.04613546875,50.707769482421874,35.38654546875,50.707769482421874,35.598835468749996,50.49906948242187L43.91535546875,42.249969482421875Z" fill="#0256FF" fill-opacity="1"/></g></g><rect x="1" y="1" width="68" height="68" rx="7" fill-opacity="0" stroke-opacity="1" stroke="#0256FF" fill="none" stroke-width="2"/></g></svg>