<svg xmlns="http://www.w3.org/2000/svg" xmlns:xlink="http://www.w3.org/1999/xlink" fill="none" version="1.1" width="70" height="70" viewBox="0 0 70 70"><defs><clipPath id="master_svg0_49_60215"><rect x="0" y="0" width="70" height="70" rx="8"/></clipPath><clipPath id="master_svg1_49_17820"><rect x="12" y="12" width="50.000003814697266" height="50.000003814697266" rx="0"/></clipPath></defs><g style="mix-blend-mode:passthrough" clip-path="url(#master_svg0_49_60215)"><g clip-path="url(#master_svg1_49_17820)"><g><path d="M49.641191875,53.789040625C49.271891875,53.789040625,48.902591875,53.647040625,48.618511875,53.362940625L43.533538875,48.306360624999996C42.965383875,47.738210625,42.965383875,46.829160625,43.533538875,46.261010625C44.101692875,45.692850625,45.010741875,45.692850625,45.578891875,46.261010625L49.612781874999996,50.294900625L56.799921875,43.107757625C57.368121875,42.539602625,58.277121875,42.539602625,58.845321874999996,43.107757625C59.413421875,43.675911625,59.413421875,44.584960625,58.845321874999996,45.153110625L50.635461875,53.362940625C50.379791875,53.647040625,50.010491875,53.789040625,49.641191875,53.789040625Z" fill="#0256FF" fill-opacity="1"/></g><g><path d="M26.574462890625,31.233230302734377C26.574464380745,33.11593030273438,28.100692890624998,34.64215030273438,29.983382890625002,34.64215030273438C31.866082890625,34.64215030273438,33.392312890625,33.11593030273438,33.392302890625004,31.233230302734377C33.392312890625,29.350540302734373,31.866082890625,27.824310302734375,29.983382890625002,27.824310302734375C28.100692890624998,27.824310302734375,26.574464380745,29.350540302734373,26.574462890625,31.233230302734377Z" fill="#0256FF" fill-opacity="1"/></g><g><path d="M29.955311328125,37.255615234375C26.802051328125,37.255615234375,24.245361328125,39.812305234375,24.245361328125,42.965565234375L24.273768928125,45.550655234375L35.665261328125,45.550655234375L35.665261328125,42.965565234375C35.665261328125,39.812305234375,33.108561328125,37.255615234375,29.955311328125,37.255615234375Z" fill="#0256FF" fill-opacity="1"/></g><g><path d="M42.170101953125,46.82907319335938C42.170101953125,42.62467319335937,45.579001953125,39.215773193359375,49.783301953125,39.215773193359375L55.777301953125,39.215773193359375C56.544401953125,39.215773193359375,57.169301953125,38.59087319335937,57.169301953125,37.82377319335937L57.169301953125,22.767753193359376C57.169301953125,21.432583193359374,56.089801953125,20.353093193359374,54.754701953125,20.353093193359374L41.829201953125,20.353093193359374L41.829201953125,18.250923193359377C41.829201953125,16.915763193359375,40.749701953125,15.836273193359375,39.414501953125,15.836273193359375L34.585201953125,15.836273193359375C33.250001953125,15.836273193359375,32.170601953125,16.915763193359375,32.170601953125,18.250923193359377L32.170601953125,20.353093193359374L19.216651953125,20.353093193359374C17.881491953125,20.353093193359374,16.802001953125,21.432583193359374,16.802001953125,22.767753193359376L16.802001953125,51.232273193359376C16.802001953125,52.56737319335937,17.881491953125,53.646873193359376,19.216651953125,53.646873193359376L40.692901953125,53.646873193359376C41.516701953125,53.646873193359376,42.170101953125,52.993573193359374,42.170101953125,52.16967319335937L42.170101953125,46.82907319335938ZM38.249801953125,46.857473193359375C38.249801953125,47.567673193359376,37.681601953124996,48.13577319335938,36.971501953125,48.13577319335938L22.994881953125,48.13577319335938C22.284681953125002,48.13577319335938,21.716531953125,47.567673193359376,21.716531953125,46.857473193359375L21.716531953125,42.965573193359376C21.716531953125,39.840773193359375,23.449401953125,37.113673193359375,26.034501953125,35.72167319335938C24.756151953125,34.58537319335937,23.960741953125,32.96607319335938,23.989141953125,31.119573193359376C24.045961953125,28.023173193359376,26.545841953125,25.409663193359375,29.642301953125,25.239213193359376C33.079601953125,25.040363193359376,35.977201953125004,27.824273193359375,35.977201953125004,31.233273193359373C35.977201953125004,33.02297319335938,35.181801953125,34.61377319335938,33.931801953125,35.72167319335938C36.488501953124995,37.14207319335938,38.249801953125,39.86917319335937,38.249801953125,42.965573193359376L38.249801953125,46.857473193359375ZM39.102001953125,20.438323193359373C39.102001953125,21.404183193359376,38.306601953124996,22.199593193359377,37.340801953124995,22.199593193359377L36.687401953125004,22.199593193359377C35.721501953125,22.199593193359377,34.926101953125,21.404183193359376,34.926101953125,20.438323193359373L34.926101953125,19.074753193359374C34.926101953125,18.819083193359376,35.153401953125,18.591823193359374,35.409001953125,18.591823193359374L38.619101953124996,18.591823193359374C38.874801953125,18.591823193359374,39.102001953125,18.819083193359376,39.102001953125,19.074753193359374L39.102001953125,20.438323193359373ZM39.329301953125,28.790173193359376C39.471301953125,28.193573193359377,40.067901953125,27.767473193359375,40.692901953125,27.767473193359375L50.067401953125,27.767473193359375C50.834401953125,27.767473193359375,51.431001953125,28.392473193359375,51.431001953125,29.131073193359377C51.431001953125,29.869673193359375,50.834401953125,30.494673193359375,50.067401953125,30.494673193359375L40.664501953125,30.494673193359375C39.755401953125,30.494673193359375,39.102001953125,29.670773193359373,39.329301953125,28.790173193359376ZM40.806501953125,35.75007319335937C40.806501953125,34.983073193359374,41.431501953125,34.38647319335938,42.170101953125,34.38647319335938L50.039001953125,34.38647319335938C50.806001953125,34.38647319335938,51.402601953125,35.01147319335938,51.402601953125,35.75007319335937C51.431001953125,36.51707319335938,50.806001953125,37.113673193359375,50.039001953125,37.113673193359375L42.170101953125,37.113673193359375C41.403101953125,37.113673193359375,40.806501953125,36.488673193359375,40.806501953125,35.75007319335937Z" fill="#0256FF" fill-opacity="1"/></g></g><rect x="1" y="1" width="68" height="68" rx="7" fill-opacity="0" stroke-opacity="1" stroke="#0256FF" fill="none" stroke-width="2"/></g></svg>