<svg xmlns="http://www.w3.org/2000/svg" xmlns:xlink="http://www.w3.org/1999/xlink" fill="none" version="1.1" width="70" height="70" viewBox="0 0 70 70"><defs><clipPath id="master_svg0_49_60225"><rect x="0" y="0" width="70" height="70" rx="8"/></clipPath><clipPath id="master_svg1_49_60711"><rect x="10" y="10" width="50" height="50" rx="0"/></clipPath></defs><g style="mix-blend-mode:passthrough" clip-path="url(#master_svg0_49_60225)"><g clip-path="url(#master_svg1_49_60711)"><g><path d="M24.560791015625,29.225830000000002C24.560791015625,31.110970000000002,26.088991015625,32.63917,27.974121015625002,32.63917C29.859261015625002,32.63917,31.387461015625,31.110970000000002,31.387461015625,29.225830000000002C31.387461015625,27.3407,29.859261015625002,25.8125,27.974121015625002,25.8125C26.088991015625,25.8125,24.560792505745,27.3407,24.560791015625,29.225830000000002Z" fill="#0256FF" fill-opacity="1"/></g><g><path d="M27.945845625,35.2559814453125C24.788515625,35.2559814453125,22.228515625,37.8159814453125,22.228515625,40.9733114453125L22.256959725,43.5617614453125L33.663215625,43.5617614453125L33.663215625,40.9733114453125C33.663215625,37.8159814453125,31.103185625000002,35.2559814453125,27.945845625,35.2559814453125Z" fill="#0256FF" fill-opacity="1"/></g><g><path d="M52.80607890625,18.331538408203123L39.83547890625,18.331538408203123L39.83547890625,16.226648408203125C39.83547890625,14.889758408203125,38.75457890625,13.808868408203125,37.41767890625,13.808868408203125L32.582078906250004,13.808868408203125C31.24517890625,13.808868408203125,30.16427890625,14.889758408203125,30.16427890625,16.226648408203125L30.16427890625,18.331538408203123L17.19365890625,18.331538408203123C15.85676890625,18.331538408203123,14.77587890625,19.412418408203123,14.77587890625,20.749308408203124L14.77587890625,49.250668408203126C14.77587890625,50.587568408203126,15.85676890625,51.668468408203125,17.19365890625,51.668468408203125L52.77767890625,51.668468408203125C54.11457890625,51.668468408203125,55.19547890625,50.587568408203126,55.19547890625,49.250668408203126L55.19547890625,20.749308408203124C55.22387890625,19.440868408203123,54.11457890625,18.331538408203123,52.80607890625,18.331538408203123ZM36.25147890625,44.87016840820313C36.25147890625,45.58126840820313,35.65407890625,46.15016840820312,34.942978906250005,46.15016840820312L20.97676890625,46.15016840820312C20.26565890625,46.15016840820312,19.69676890625,45.58126840820313,19.69676890625,44.87016840820313L19.69676890625,40.973268408203126C19.69676890625,37.84446840820313,21.43187890625,35.11376840820313,24.02031890625,33.71996840820313C22.76876890625,32.610668408203125,21.97231890625,31.017768408203125,21.97231890625,29.225768408203123C21.97231890625,25.926168408203125,24.67454890625,23.223978408203124,27.97407890625,23.223978408203124C31.27367890625,23.223978408203124,33.97587890625,25.926168408203125,33.97587890625,29.225768408203123C33.97587890625,31.017768408203125,33.17947890625,32.610668408203125,31.92787890625,33.71996840820313C34.48787890625,35.142168408203126,36.25147890625,37.872868408203125,36.25147890625,40.973268408203126L36.25147890625,44.87016840820313ZM37.104778906250004,18.416868408203126C37.104778906250004,19.383978408203124,36.308278906249996,20.180418408203124,35.34117890625,20.180418408203124L34.686978906250005,20.180418408203124C33.71987890625,20.180418408203124,32.92347890625,19.383978408203124,32.92347890625,18.416868408203126L32.92347890625,17.051538408203125C32.92347890625,16.795538408203125,33.15097890625,16.567978408203125,33.40697890625,16.567978408203125L36.62117890625,16.567978408203125C36.877178906249995,16.567978408203125,37.104778906250004,16.795538408203125,37.104778906250004,17.051538408203125L37.104778906250004,18.416868408203126ZM48.05587890625,42.879068408203125L41.883478906250005,42.879068408203125C41.115478906250004,42.879068408203125,40.51807890625,42.25326840820313,40.51807890625,41.51376840820312C40.51807890625,40.745768408203126,41.143878906249995,40.14846840820313,41.883478906250005,40.14846840820313L48.05587890625,40.14846840820313C48.82387890625,40.14846840820313,49.42117890625,40.774168408203124,49.42117890625,41.51376840820312C49.44967890625,42.28176840820312,48.82387890625,42.879068408203125,48.05587890625,42.879068408203125ZM48.05587890625,35.68266840820313L40.17677890625,35.68266840820313C39.40877890625,35.68266840820313,38.81147890625,35.05686840820313,38.81147890625,34.31726840820313C38.81147890625,33.549268408203126,39.43717890625,32.95196840820313,40.17677890625,32.95196840820313L48.05587890625,32.95196840820313C48.82387890625,32.95196840820313,49.42117890625,33.57776840820313,49.42117890625,34.31726840820313C49.44967890625,35.08526840820312,48.82387890625,35.68266840820313,48.05587890625,35.68266840820313ZM48.05587890625,28.486168408203127L38.64077890625,28.486168408203127C37.872778906250005,28.486168408203127,37.27547890625,27.860468408203126,37.27547890625,27.120868408203123C37.27547890625,26.381268408203127,37.901178906249996,25.755568408203125,38.64077890625,25.755568408203125L48.05587890625,25.755568408203125C48.82387890625,25.755568408203125,49.42117890625,26.381268408203127,49.42117890625,27.120868408203123C49.42117890625,27.860468408203126,48.82387890625,28.486168408203127,48.05587890625,28.486168408203127Z" fill="#0256FF" fill-opacity="1"/></g></g><rect x="1" y="1" width="68" height="68" rx="7" fill-opacity="0" stroke-opacity="1" stroke="#0256FF" fill="none" stroke-width="2"/></g></svg>