<svg xmlns="http://www.w3.org/2000/svg" xmlns:xlink="http://www.w3.org/1999/xlink" fill="none" version="1.1" width="70" height="70" viewBox="0 0 70 70"><defs><clipPath id="master_svg0_49_60275"><rect x="0" y="0" width="70" height="70" rx="8"/></clipPath><clipPath id="master_svg1_49_60722"><rect x="10" y="10" width="50" height="50" rx="0"/></clipPath></defs><g style="mix-blend-mode:passthrough" clip-path="url(#master_svg0_49_60275)"><g clip-path="url(#master_svg1_49_60722)"><g><path d="M45.80333359375,36.07135009765625C43.39265359375,36.07135009765625,40.98193359375,36.96420709765625,39.19622359375,38.48207009765625L36.51765359375,38.39278009765625L36.33908059375,41.78564009765625C36.24979659375,42.76778009765625,37.05336359375,43.57135009765625,38.03551359375,43.66064009765625L41.42836359375,43.83921009765625L41.51765359375,41.16064009765625C42.67836359375,40.17850009765625,44.19622359375,39.64279009765625,45.71403359375,39.64279009765625C49.46403359375,39.64279009765625,52.58903359375,42.67850009765625,52.58903359375,46.51775009765625C52.58903359375,46.87495009765625,52.58903359375,47.32135009765625,52.49983359375,47.67845009765625L55.98193359375,48.30345009765625C56.07123359375,47.76775009765625,56.16053359375,47.14275009765625,56.16053359375,46.60705009765625C56.24983359375,40.80350009765625,51.51763359375,36.07135605811625,45.80333359375,36.07135009765625ZM53.03553359375,50.35705009765625L49.64263359375,49.73205009765625L49.19623359375,52.41065009765625C48.21403359375,53.03565009765625,46.96403359375,53.30345009765625,45.80333359375,53.30345009765625C42.05336359375,53.30345009765625,38.92836359375,50.26775009765625,38.92836359375,46.42845009765625L38.92836359375,46.16065009765625L35.35693359375,46.07135009765625L35.35693359375,46.42845009765625C35.35693359375,52.14275009765625,39.99979359375,56.87495009765625,45.80333359375,56.87495009765625C47.76763359375,56.87495009765625,49.64263359375,56.33925009765625,51.33903359375,55.26775009765625L53.92833359375,55.71425009765625L54.55333359375,52.32135009765625C54.64263359375,51.42845009765625,54.01763359375,50.53565009765625,53.03553359375,50.35705009765625Z" fill="#0256FF" fill-opacity="1"/></g><g><path d="M33.214055859375,52.5C33.124755859375,52.4107,33.124755859375,52.2321,33.035455859375,52.1429C32.946155859375,51.9643,32.946155859375,51.875,32.856855859375,51.6964C32.678355859375,51.3393,32.589055859375,50.9821,32.499755859375,50.625L32.499755859375,50.5357C32.410455859375,50.0893,32.231855859375,49.7321,32.142655859375,49.2857L32.142655859375,49.1964C32.053355859375,48.8393,32.053355859375,48.3929,31.964055859375,48.0357L31.964055859375,47.7679C31.964055859375,47.3214,31.874755859375,46.9643,31.874755859375,46.5179L31.874755859375,46.0714L31.964055859375,42.5L32.767655859375,42.5L32.767655859375,41.7857L32.767655859375,41.6964L32.946155859375,38.3036L33.035455859375,36.3393L24.553355859375,36.3393L24.553355859375,32.7679L36.874755859375,32.7679L36.874755859375,34.9107L38.035455859375,35C40.356855859375,33.4821,43.035455859375,32.6786,45.803355859375,32.6786L46.428355859375,32.6786C46.964055859375,32.6786,47.499755859375,32.7679,47.946155859375,32.8571C48.035455859375,32.8571,48.124755859375,32.8571,48.214055859375,32.9464C48.392655859375,32.9464,48.481855859375,33.0357,48.660455859375,33.0357C49.106855859375,33.125,49.553355859375,33.2143,49.999755859375,33.3929C50.089055859375,33.3929,50.178355859375,33.3929,50.178355859375,33.4821L51.517655859375,34.0179C51.606855859375,34.0179,51.606855859375,34.1071,51.696155859375,34.1071C52.142655859375,34.2857,52.589055859375,34.5536,53.035455859375,34.8214L53.035455859375,14.91071C53.035455859375,13.928571,52.231855859375,13.125,51.249755859375,13.125L15.535465859375,13.125C14.553326859375,13.125,13.749755859375,13.928571,13.749755859375,14.91071L13.749755859375,54.1964C13.749755859375,55.1786,14.553327859374999,55.9821,15.535465859375,55.9821L33.392655859375,55.9821C33.928355859375,55.9821,34.374755859375,55.8036,34.731855859375,55.4464L34.821155859375,55.2679C34.464055859375,54.8214,34.106855859375,54.2857,33.749755859375,53.75C33.571155859375,53.3036,33.392655859375,52.9464,33.214055859375,52.5ZM24.553355859375,24.642899999999997L42.231855859375,24.642899999999997L42.231855859375,28.2143L24.553355859375,28.2143L24.553355859375,24.642899999999997ZM31.517655859375,44.375L24.553355859375,44.375L24.553355859375,40.8036L31.517655859375,40.8036L31.517655859375,44.375Z" fill="#0256FF" fill-opacity="1"/></g></g><rect x="1" y="1" width="68" height="68" rx="7" fill-opacity="0" stroke-opacity="1" stroke="#0256FF" fill="none" stroke-width="2"/></g></svg>