<svg xmlns="http://www.w3.org/2000/svg" xmlns:xlink="http://www.w3.org/1999/xlink" fill="none" version="1.1" width="70" height="70" viewBox="0 0 70 70"><defs><clipPath id="master_svg0_49_60235"><rect x="0" y="0" width="70" height="70" rx="8"/></clipPath><clipPath id="master_svg1_49_17808"><rect x="5" y="5" width="59" height="59" rx="0"/></clipPath></defs><g style="mix-blend-mode:passthrough" clip-path="url(#master_svg0_49_60235)"><g clip-path="url(#master_svg1_49_17808)"><g><path d="M45.470472265625,32.57961596679688C45.470472265625,25.794565966796874,39.950972265625,20.275115966796875,33.165972265625,20.275115966796875C26.381022265625,20.275115966796875,20.861572265625,25.794565966796874,20.861572265625,32.57961596679688C20.861572265625,39.364615966796876,26.381022265625,44.88401596679687,33.166072265625004,44.88401596679687C39.951072265625,44.88401596679687,45.470472265625,39.364615966796876,45.470472265625,32.57961596679688ZM29.794172265625,32.19601596679688L33.720572265625,32.19601596679688L33.720572265625,31.175315966796873L30.466772265625,31.175315966796873L30.466772265625,29.293265966796874L33.720672265625,29.293265966796874L33.720672265625,28.369915966796874L29.873822265625,28.369915966796874L29.873822265625,26.455365966796876L33.720672265625,26.455365966796876L33.720672265625,25.030515966796877L35.812172265625,25.030515966796877L35.812172265625,26.458315966796874L40.012972265624995,26.458315966796874L40.012972265624995,28.372865966796873L35.812172265625,28.372865966796873L35.812172265625,29.296215966796876L39.499672265625,29.296215966796876L39.499672265625,31.178315966796873L35.812172265625,31.178315966796873L35.812172265625,32.19901596679688L40.275472265625,32.19901596679688L40.269572265625,32.343615966796875C40.269572265625,32.36121596679688,40.251872265624996,32.77131596679688,40.219472265625,32.99841596679688C40.066072265624996,35.267015966796876,39.877272265624995,36.216915966796876,39.493772265625,36.61811596679688C39.204672265625,36.95741596679687,38.862472265625,37.11961596679687,38.360972265625,37.158015966796874C37.995172265625,37.208115966796875,37.331372265625,37.222915966796876,36.676472265625,37.19041596679688L36.546672265625,37.18451596679688L36.543772265625,37.05471596679688C36.528972265625,36.60331596679687,36.363772265625,36.00451596679687,36.142572265625,35.59451596679688L36.018672265625,35.36431596679687L36.278272265625,35.38801596679687C36.759072265625,35.435215966796875,37.236972265625,35.45281596679688,37.499572265625005,35.45281596679688C37.673572265625,35.45281596679688,37.762072265625,35.42631596679688,37.856472265625,35.34371596679688C37.950872265625,35.21981596679687,38.048272265625,34.806815966796876,38.127872265625,34.128315966796876L35.812172265625,34.128315966796876L35.812172265625,37.71851596679687L33.720572265625,37.71851596679687L33.720572265625,34.128315966796876L29.794172265625,34.128315966796876L29.794172265625,32.19601596679688ZM27.086072265625,25.316665966796876L27.168672265625,25.384515966796876C28.103822265625,26.145615966796875,29.189422265624998,27.240065966796877,29.693872265625,27.927415966796875L29.776472265625,28.039515966796877L28.006472265625,29.349315966796873L27.923872265625,29.225415966796874C27.448922265625,28.505615966796874,26.366272265625,27.369865966796876,25.543222265625,26.623515966796873L25.413422265625,26.505515966796874L27.086072265625,25.316665966796876ZM40.449572265625,37.69491596679687C40.234272265624995,38.23181596679687,39.989372265625,39.040115966796876,39.962772265625,39.47961596679687L39.953972265625,39.60051596679688L39.832972265625,39.609415966796874C38.644172265625,39.69201596679687,36.059972265625,39.768715966796876,34.517172265625,39.768715966796876C32.752972265625004,39.768715966796876,31.319372265625,39.633015966796876,30.059672265625,38.96631596679687C29.803022265625,38.833515966796874,29.567022265625,38.68601596679687,29.357572265625002,38.55621596679687C29.027172265624998,38.346815966796875,28.738072265625,38.166815966796875,28.537472265625,38.166815966796875C28.038922265625,38.166815966796875,27.062472265625,39.523815966796874,26.743872265625,39.96931596679687L26.628822265625,40.12861596679687L25.292472265625,38.25531596679687L25.375072265625,38.17271596679687C26.006372265625,37.544415966796876,26.658322265625,37.039915966796876,27.274872265625,36.71251596679687L27.274872265625,32.641515966796874L25.463572265625,32.641515966796874L25.463572265625,30.600115966796874L29.381172265625,30.600115966796874L29.381172265625,36.573915966796875C29.475572265625,36.62991596679687,29.575872265625,36.691815966796874,29.682072265625,36.756715966796875C29.903322265625,36.895415966796875,30.154072265625,37.05171596679688,30.463822265624998,37.219915966796876C31.449072265625,37.750915966796875,32.823772265624996,37.86001596679688,34.581972265625,37.86001596679688C36.163172265625,37.86001596679688,38.703172265625,37.73621596679688,40.302072265625,37.50901596679687L40.541072265625004,37.47361596679687L40.449572265625,37.69491596679687Z" fill="#0256FF" fill-opacity="1"/></g><g><path d="M45.884019921875,11.448638916015625L23.121819921875,11.448638916015625C16.699669921875,11.448638916015625,11.492919921875,16.655388916015625,11.492919921875,23.077538916015627L11.492919921875,45.83973891601563C11.492919921875,52.26193891601562,16.699669921875,57.46863891601563,23.121819921875,57.46863891601563L45.884019921875,57.46863891601563C52.306219921875,57.46863891601563,57.512919921875,52.26193891601562,57.512919921875,45.83973891601563L57.512919921875,23.077538916015627C57.512919921875,16.655388916015625,52.306219921875,11.448638916015625,45.884019921875,11.448638916015625ZM49.108419921875,50.49193891601563C48.809219921875,50.767138916015625,48.417519921875,50.91983891601563,48.011019921875,50.91963891601562C47.571419921875,50.91963891601562,47.134819921875,50.74263891601562,46.816219921875,50.39453891601563L42.122719921875,45.27923891601562C39.588719921875,47.07283891601563,36.500019921875,48.12893891601563,33.166519921875,48.12893891601563C24.593819921875,48.12893891601563,17.617119921875002,41.15223891601563,17.617119921875002,32.57953891601562C17.617119921875002,24.006838916015624,24.590919921875,17.030038916015627,33.166519921875,17.030038916015627C41.742219921875005,17.030038916015627,48.716019921875,24.003838916015624,48.716019921875,32.57953891601562C48.716019921875,36.653438916015624,47.137719921875,40.364538916015626,44.565319921875,43.14053891601563L49.208719921875,48.199738916015626C49.813419921875,48.857638916015624,49.769219921875,49.884238916015626,49.108419921875,50.49193891601563Z" fill="#0256FF" fill-opacity="1"/></g></g><rect x="1" y="1" width="68" height="68" rx="7" fill-opacity="0" stroke-opacity="1" stroke="#0256FF" fill="none" stroke-width="2"/></g></svg>