<svg xmlns="http://www.w3.org/2000/svg" xmlns:xlink="http://www.w3.org/1999/xlink" fill="none" version="1.1" width="70" height="70" viewBox="0 0 70 70"><defs><clipPath id="master_svg0_49_60245"><rect x="0" y="0" width="70" height="70" rx="8"/></clipPath><clipPath id="master_svg1_49_17795"><rect x="13" y="13" width="45" height="45" rx="0"/></clipPath></defs><g style="mix-blend-mode:passthrough" clip-path="url(#master_svg0_49_60245)"><g clip-path="url(#master_svg1_49_17795)"><g><path d="M56.89197265625,45.81656970703125C56.41817265625,45.41044970703125,55.80897265625,45.18482970703125,55.17727265625,45.20739970703125C53.77837265625,45.32020970703125,52.44727265625,45.79400970703125,51.31917265625,46.58366970703125C47.19027265625,49.155699707031246,44.91157265625,50.46429970703125,42.45227265625,50.48689970703125C40.94067265625,50.419199707031254,39.474172656250005,50.08079970703125,38.097872656250004,49.44899970703125C35.68377265625,48.52399970703125,34.172072656249995,47.86969970703125,33.22447265625,47.35077970703125C32.863472656249996,47.17027970703125,32.52507265625,46.94465970703125,32.20927265625,46.67391970703125L31.66777265625,46.13243970703125L32.29947265625,45.20739970703125L32.59277265625,45.11714970703125C32.93117265625,45.00433970703125,33.29217265625,44.936659707031254,33.65317265625,44.95921970703125C35.39047265625,45.11714970703125,37.105172656250005,45.50069970703125,38.752172656249996,46.08730970703125C39.56437265625,46.33548970703125,40.33147265625,46.56110970703125,40.94067265625,46.71903970703125C41.346772656249996,46.80928970703125,41.75287265625,46.85441970703125,42.18157265625,46.85441970703125C44.121872656250005,46.85441970703125,45.58847265625,45.68119970703125,45.61097265625,44.10186970703125C45.63357265625,42.522529707031254,44.16707265625,41.34931970703125,41.843172656250005,40.78526970703125C40.60227265625,40.49195970703125,39.54187265625,40.19865970703125,38.57167265625,39.92791970703125C36.45087265625,39.22849870703125,34.26237265625,38.82238520703125,32.02877265625,38.75469970703125C31.14877265625,38.75469970703125,30.26887265625,38.82238520703125,29.38897265625,38.95775670703125C25.59857265625,39.52180370703125,20.22886265625,42.34203970703125,14.340210656250001,46.87697970703125C14.20483865625,46.98978970703125,14.06946765625,47.102599707031246,13.91153465625,47.17028970703125L13.52798231625,47.39589970703125C13.34748765625,50.14849970703125,17.27325265625,56.037099707031246,19.84531265625,56.804199707031245C19.958122656249998,56.759099707031254,20.09349265625,56.69139970703125,20.20630265625,56.64629970703125L20.34167265625,56.578599707031245C21.06365265625,56.352999707031245,21.80819265625,56.14989970703125,22.55274265625,55.991999707031255C24.26747265625,55.60839970703125,26.00467265625,55.40539970703125,27.74197265625,55.40539970703125C29.41157265625,55.51819970703125,31.05857265625,55.85659970703125,32.61537265625,56.46579970703125C35.07457265625,57.368299707031255,37.66917265625,57.864599707031246,40.30897265625,57.954899707031245C45.430472656250004,57.954899707031245,49.10807265625,55.20229970703125,52.06367265625,53.013799707031254C52.89847265625,52.35949970703125,53.77837265625,51.750299707031246,54.68087265625,51.18629970703125C56.44067265625,50.14849970703125,57.43337265625,48.70448970703125,57.43337265625,47.26052970703125C57.47857265625,46.76416970703125,57.27547265625,46.22267970703125,56.89197265625,45.81656970703125Z" fill="#0256FF" fill-opacity="1"/></g><g><path d="M33.20175234375,47.35077970703125C32.84075234375,47.17027970703125,32.50235234375,46.94466970703125,32.18645234375,46.67391970703125L31.64495234375,46.13243970703125L32.27665234375,45.20739970703125L32.56995234375,45.11714970703125C32.90845234375,45.00433970703125,33.269452343750004,44.936659707031254,33.65295234375,44.95921970703125C35.39025234375,45.11714970703125,37.10495234375,45.50069970703125,38.75195234375,46.08730970703125C39.564152343749996,46.33548970703125,40.331252343749995,46.56110970703125,40.940452343749996,46.719049707031246C41.346552343750005,46.80928970703125,41.75265234375,46.85441970703125,42.18135234375,46.85441970703125C44.12165234375,46.85441970703125,45.58825234375,45.68119970703125,45.61075234375,44.10186970703125C45.633352343750005,42.522529707031254,44.16685234375,41.34931970703125,41.84295234375,40.78526970703125C40.60205234375,40.49195970703125,39.54165234375,40.19865970703125,38.571452343749996,39.92791970703125C36.45065234375,39.22849870703125,34.26215234375,38.82238530703125,32.02851234375,38.75469970703125C31.14859234375,38.75469970703125,30.26868234375,38.82238530703125,29.38876234375,38.95775670703125C26.816712343749998,39.45411770703125,24.33490234375,40.37915970703125,22.05615234375,41.71030970703125C25.46299234375,46.62879970703125,31.08091234375,49.56179970703125,37.05985234375,49.56179970703125C37.51105234375,49.56179970703125,37.96225234375,49.56179970703125,38.39095234375,49.49419970703125L38.00745234375,49.35879970703125C35.66095234375,48.47886970703125,34.12675234375,47.86970970703125,33.20175234375,47.35077970703125Z" fill="#0256FF" fill-opacity="1"/></g><g><path d="M32.028166015625004,36.9949C33.314166015625,37.017399999999995,34.622766015625004,37.1528,35.886166015625,37.4461L35.886166015625,34.7838L31.464066015625,34.7838C30.787266015625,34.8064,30.223166015625,34.287400000000005,30.200566015625,33.6332C30.178066015625,32.9563,30.696966015625,32.3923,31.351266015625,32.3697L35.908766015625005,32.3697L35.908766015625005,30.2263L31.464066015625,30.2263C30.787266015625,30.2489,30.223166015625,29.7299,30.200566015625,29.0757C30.178066015625,28.3988,30.696966015625,27.834699999999998,31.351266015625,27.8122L33.584866015624996,27.8122L31.441466015625,23.3901C31.148166015625,22.803449999999998,31.396366015625,22.08147,31.982966015625,21.788159999999998L32.005566015625,21.788159999999998C32.614766015625,21.49486,33.336666015625,21.74304,33.629966015625,22.35221L36.292366015625,27.8348L37.578366015625,27.8348L40.240666015624996,22.35221C40.533966015625,21.74304,41.278466015625,21.49486,41.887666015625,21.788159999999998C42.496866015625,22.08147,42.745066015625,22.803449999999998,42.451766015625,23.3901L40.308366015625,27.8122L42.745066015625,27.8122C43.421866015625,27.8348,43.940766015625,28.3988,43.895666015625,29.0757C43.873066015625,29.7074,43.376766015625,30.2037,42.745066015625,30.2263L38.322866015624996,30.2263L38.322866015624996,32.3697L42.745066015625,32.3697C43.421866015625,32.3923,43.940766015625,32.9563,43.895666015625,33.6332C43.873066015625,34.2649,43.376766015625,34.7612,42.745066015625,34.7838L38.322866015624996,34.7838L38.322866015624996,38.0102L39.067466015625,38.2132C39.969866015625,38.4614,41.052866015625,38.7547,42.271266015625,39.048C45.429866015624995,39.7926,47.415366015625,41.8006,47.437866015625005,44.147C47.415366015625,45.3879,46.873866015625,46.5611,45.926266015625,47.3733C54.793066015625,42.5225,58.041966015625,31.3995,53.191166015625,22.53271C48.340366015625,13.665886,37.239966015625,10.39441,28.373096015625002,15.24522C19.506272015625,20.09602,16.257366015625,31.2416,21.108166015625,40.1084L21.175856015625,40.2438C23.635096015625,38.7773,26.319966015625,37.762,29.140166015625,37.197900000000004C30.110366015625,37.0626,31.080566015625,36.9949,32.028166015625004,36.9949Z" fill="#0256FF" fill-opacity="1"/></g></g><rect x="1" y="1" width="68" height="68" rx="7" fill-opacity="0" stroke-opacity="1" stroke="#0256FF" fill="none" stroke-width="2"/></g></svg>