<svg xmlns="http://www.w3.org/2000/svg" xmlns:xlink="http://www.w3.org/1999/xlink" fill="none" version="1.1" width="609" height="140.625" viewBox="0 0 609 140.625"><g style="opacity:0.4000000059604645;mix-blend-mode:passthrough"><path d="M26.4219,114L37.3281,114L56.5938,44.4531L57.2656,44.4531L76.5312,114L87.4375,114L111.312,26.7188L100.562,26.7188L82.3281,97.8125L81.4844,97.8125L62.8906,26.7188L50.9688,26.7188L32.375,97.8125L31.5312,97.8125L13.2812,26.7188L2.54688,26.7188L26.4219,114ZM124.562,114L177.922,114L177.922,104.625L135.125,104.625L135.125,74.9688L174.516,74.9688L174.516,65.5938L135.125,65.5938L135.125,36.1094L177.234,36.1094L177.234,26.7188L124.562,26.7188L124.562,114ZM207.125,26.7188L196.562,26.7188L196.562,114L207.125,114L207.125,26.7188ZM332.797,54C329.562,36.1094,315.234,25.5312,297.672,25.5312C275.344,25.5312,259.156,42.75,259.156,70.3594C259.156,97.9844,275.344,115.203,297.672,115.203C315.234,115.203,329.562,104.625,332.797,86.7344L322.219,86.7344C319.672,98.8281,309.266,105.312,297.672,105.312C281.828,105.312,269.375,93.0469,269.375,70.3594C269.375,47.6875,281.828,35.4219,297.672,35.4219C309.266,35.4219,319.672,41.9062,322.219,54L332.797,54ZM423.203,70.3594C423.203,42.75,407.016,25.5312,384.672,25.5312C362.344,25.5312,346.156,42.75,346.156,70.3594C346.156,97.9844,362.344,115.203,384.672,115.203C407.016,115.203,423.203,97.9844,423.203,70.3594ZM412.984,70.3594C412.984,93.0469,400.531,105.312,384.672,105.312C368.828,105.312,356.375,93.0469,356.375,70.3594C356.375,47.6875,368.828,35.4219,384.672,35.4219C400.531,35.4219,412.984,47.6875,412.984,70.3594ZM440.562,26.7188L440.562,114L450.453,114L450.453,47.6875L451.297,47.6875L478.578,114L488.125,114L515.391,47.6875L516.25,47.6875L516.25,114L526.141,114L526.141,26.7188L513.516,26.7188L483.859,99.1719L482.844,99.1719L453.172,26.7188L440.562,26.7188ZM547.562,114L600.922,114L600.922,104.625L558.125,104.625L558.125,74.9688L597.516,74.9688L597.516,65.5938L558.125,65.5938L558.125,36.1094L600.234,36.1094L600.234,26.7188L547.562,26.7188L547.562,114Z" fill="#DEE7EF" fill-opacity="1"/></g></svg>